<?xml version="1.0" encoding="UTF-8"?>
<svg xmlns="http://www.w3.org/2000/svg" xmlns:xlink="http://www.w3.org/1999/xlink" width="1525.4184672357708" height="239.54195068951861"><g transform="scale(1.333) translate(2655.0848125,573.6079550534487)" style="fill:none;"><g transform="translate(-1839.7386255264287,-546.6079550534487)"><path d="M152,37L121,37" stroke="#00FF00" stroke-width="1"/></g><g transform="translate(-2089.666664123535,-539.5)"><path d="M260,30L175,30" stroke="#00FF00" stroke-width="1"/></g><g transform="translate(-2303.0848125,-539.799203125)"><path d="M223,30Q223,28 153,29" stroke="#00FF00" stroke-width="1"/></g><g transform="translate(-2125.0848125,-528.799203125)"><g transform="scale(0.005859375)" style="fill:#4F4F4F;"><g transform="translate(0 2048) scale (1 -1)"><path d="M1065 0L98 0L98 150L481 537Q654 712 710 787Q766 862 793.5 932Q821 1002 821 1083Q821 1199 752 1264Q683 1329 563 1329Q473 1329 392.5 1299Q312 1269 211 1190L115 1311Q320 1483 563 1483Q767 1483 886.5 1378.5Q1006 1274 1006 1094Q1006 998 971 908.5Q936 819 866 726.5Q796 634 631 473L326 172L326 164L1065 164Z"/></g><g transform="translate(1171 2048) scale (1 -1)"><path d="M1071 733Q1071 352 950.5 166Q830 -20 584 -20Q346 -20 223 171.5Q100 363 100 733Q100 1115 218.5 1300Q337 1485 584 1485Q822 1485 946.5 1293Q1071 1101 1071 733ZM281 733Q281 415 353.5 274Q426 133 584 133Q744 133 816.5 277.5Q889 422 889 733Q889 1041 816.5 1186Q744 1331 584 1331Q424 1331 352.5 1189Q281 1047 281 733Z"/></g><g transform="translate(2342 2048) scale (1 -1)"><path d="M1071 733Q1071 352 950.5 166Q830 -20 584 -20Q346 -20 223 171.5Q100 363 100 733Q100 1115 218.5 1300Q337 1485 584 1485Q822 1485 946.5 1293Q1071 1101 1071 733ZM281 733Q281 415 353.5 274Q426 133 584 133Q744 133 816.5 277.5Q889 422 889 733Q889 1041 816.5 1186Q744 1331 584 1331Q424 1331 352.5 1189Q281 1047 281 733Z"/></g></g></g><g transform="translate(-2431.0848125,-539.799203125)"><path d="M138,29L108,29" stroke="#00FF00" stroke-width="1"/></g><g transform="translate(-2628.0848125,-539.799203125)"><path d="M207,29L177,29" stroke="#00FF00" stroke-width="1"/></g><g transform="translate(-2389.0848125,-539.799203125)"><path d="M162,29Q162,137 66,104" stroke="#FF0000" stroke-width="1"/></g><g transform="translate(-2265.0848125,-457.79920312499996)"><g transform="scale(0.005859375)" style="fill:#4F4F4F;"><g transform="translate(0 2048) scale (1 -1)"><path d="M270 221L375 444L102 444L102 590L442 590L563 852L102 852L102 997L631 997L766 1284L899 1223L791 997L1065 997L1065 852L725 852L600 590L1065 590L1065 444L532 444L401 162Z"/></g><g transform="translate(1703 2048) scale (1 -1)"><path d="M1065 0L98 0L98 150L481 537Q654 712 710 787Q766 862 793.5 932Q821 1002 821 1083Q821 1199 752 1264Q683 1329 563 1329Q473 1329 392.5 1299Q312 1269 211 1190L115 1311Q320 1483 563 1483Q767 1483 886.5 1378.5Q1006 1274 1006 1094Q1006 998 971 908.5Q936 819 866 726.5Q796 634 631 473L326 172L326 164L1065 164Z"/></g><g transform="translate(2874 2048) scale (1 -1)"><path d="M1071 733Q1071 352 950.5 166Q830 -20 584 -20Q346 -20 223 171.5Q100 363 100 733Q100 1115 218.5 1300Q337 1485 584 1485Q822 1485 946.5 1293Q1071 1101 1071 733ZM281 733Q281 415 353.5 274Q426 133 584 133Q744 133 816.5 277.5Q889 422 889 733Q889 1041 816.5 1186Q744 1331 584 1331Q424 1331 352.5 1189Q281 1047 281 733Z"/></g><g transform="translate(4045 2048) scale (1 -1)"><path d="M1071 733Q1071 352 950.5 166Q830 -20 584 -20Q346 -20 223 171.5Q100 363 100 733Q100 1115 218.5 1300Q337 1485 584 1485Q822 1485 946.5 1293Q1071 1101 1071 733ZM281 733Q281 415 353.5 274Q426 133 584 133Q744 133 816.5 277.5Q889 422 889 733Q889 1041 816.5 1186Q744 1331 584 1331Q424 1331 352.5 1189Q281 1047 281 733Z"/></g></g></g><g transform="translate(-2175.666664123535,-539.5)"><path d="M174,30Q174,136 66,103" stroke="#FF0000" stroke-width="1"/></g><g transform="translate(-2048.666664123535,-455.5)"><g transform="scale(0.005859375)" style="fill:#4F4F4F;"><g transform="translate(0 2048) scale (1 -1)"><path d="M680 958L403 958L403 0L223 0L223 958L31 958L31 1042L223 1104L223 1167Q223 1367 310.5 1467Q398 1567 580 1567Q685 1567 793 1530L745 1389Q652 1419 582 1419Q491 1419 447 1359Q403 1299 403 1169L403 1098L680 1098Z"/></g><g transform="translate(705 2048) scale (1 -1)"><path d="M852 0L817 156L809 156Q727 53 645.5 16.5Q564 -20 440 -20Q278 -20 186 65Q94 150 94 305Q94 639 621 655L807 662L807 727Q807 852 753 911.5Q699 971 580 971Q493 971 415.5 945Q338 919 270 887L215 1022Q298 1066 396 1091Q494 1116 590 1116Q789 1116 886 1028Q983 940 983 748L983 0ZM481 125Q632 125 718.5 206.5Q805 288 805 438L805 537L643 530Q454 523 367.5 470Q281 417 281 303Q281 217 333.5 171Q386 125 481 125Z"/></g><g transform="translate(1854 2048) scale (1 -1)"><path d="M354 0L174 0L174 1098L354 1098ZM160 1395Q160 1455 190.5 1482Q221 1509 266 1509Q308 1509 339.5 1482Q371 1455 371 1395Q371 1336 339.5 1308Q308 1280 266 1280Q221 1280 190.5 1308Q160 1336 160 1395Z"/></g><g transform="translate(2382 2048) scale (1 -1)"><path d="M354 0L174 0L174 1556L354 1556Z"/></g><g transform="translate(2910 2048) scale (1 -1)"><path d="M344 1098L344 391Q344 258 403.5 193.5Q463 129 588 129Q757 129 834 223Q911 317 911 526L911 1098L1092 1098L1092 0L944 0L918 145L909 145Q860 66 770 23Q680 -20 561 -20Q363 -20 262.5 75Q162 170 162 379L162 1098Z"/></g><g transform="translate(4176 2048) scale (1 -1)"><path d="M686 1118Q759 1118 815 1106L793 940Q732 954 674 954Q587 954 512.5 906Q438 858 396 773.5Q354 689 354 586L354 0L174 0L174 1098L322 1098L342 897L350 897Q413 1006 499 1062Q585 1118 686 1118Z"/></g><g transform="translate(5022 2048) scale (1 -1)"><path d="M641 -20Q394 -20 253.5 129.5Q113 279 113 541Q113 805 244 961.5Q375 1118 598 1118Q805 1118 928 984.5Q1051 851 1051 623L1051 514L299 514Q304 327 394 230Q484 133 649 133Q737 133 816 148.5Q895 164 1001 209L1001 51Q910 12 830 -4Q750 -20 641 -20ZM596 971Q467 971 392 888Q317 805 303 657L862 657Q860 811 791 891Q722 971 596 971Z"/></g></g></g><g transform="translate(-1925.7386255264287,-530.6079550534487)"><path d="M147,21Q147,126 66,93" stroke="#FF0000" stroke-width="1"/></g><g transform="translate(-1813.7386255264287,-460.6079550534487)"><g transform="scale(0.005859375)" style="fill:#4F4F4F;"><g transform="translate(0 2048) scale (1 -1)"><path d="M680 958L403 958L403 0L223 0L223 958L31 958L31 1042L223 1104L223 1167Q223 1367 310.5 1467Q398 1567 580 1567Q685 1567 793 1530L745 1389Q652 1419 582 1419Q491 1419 447 1359Q403 1299 403 1169L403 1098L680 1098Z"/></g><g transform="translate(705 2048) scale (1 -1)"><path d="M852 0L817 156L809 156Q727 53 645.5 16.5Q564 -20 440 -20Q278 -20 186 65Q94 150 94 305Q94 639 621 655L807 662L807 727Q807 852 753 911.5Q699 971 580 971Q493 971 415.5 945Q338 919 270 887L215 1022Q298 1066 396 1091Q494 1116 590 1116Q789 1116 886 1028Q983 940 983 748L983 0ZM481 125Q632 125 718.5 206.5Q805 288 805 438L805 537L643 530Q454 523 367.5 470Q281 417 281 303Q281 217 333.5 171Q386 125 481 125Z"/></g><g transform="translate(1854 2048) scale (1 -1)"><path d="M354 0L174 0L174 1098L354 1098ZM160 1395Q160 1455 190.5 1482Q221 1509 266 1509Q308 1509 339.5 1482Q371 1455 371 1395Q371 1336 339.5 1308Q308 1280 266 1280Q221 1280 190.5 1308Q160 1336 160 1395Z"/></g><g transform="translate(2382 2048) scale (1 -1)"><path d="M354 0L174 0L174 1556L354 1556Z"/></g><g transform="translate(2910 2048) scale (1 -1)"><path d="M344 1098L344 391Q344 258 403.5 193.5Q463 129 588 129Q757 129 834 223Q911 317 911 526L911 1098L1092 1098L1092 0L944 0L918 145L909 145Q860 66 770 23Q680 -20 561 -20Q363 -20 262.5 75Q162 170 162 379L162 1098Z"/></g><g transform="translate(4176 2048) scale (1 -1)"><path d="M686 1118Q759 1118 815 1106L793 940Q732 954 674 954Q587 954 512.5 906Q438 858 396 773.5Q354 689 354 586L354 0L174 0L174 1098L322 1098L342 897L350 897Q413 1006 499 1062Q585 1118 686 1118Z"/></g><g transform="translate(5022 2048) scale (1 -1)"><path d="M641 -20Q394 -20 253.5 129.5Q113 279 113 541Q113 805 244 961.5Q375 1118 598 1118Q805 1118 928 984.5Q1051 851 1051 623L1051 514L299 514Q304 327 394 230Q484 133 649 133Q737 133 816 148.5Q895 164 1001 209L1001 51Q910 12 830 -4Q750 -20 641 -20ZM596 971Q467 971 392 888Q317 805 303 657L862 657Q860 811 791 891Q722 971 596 971Z"/></g></g></g><g transform="translate(-1697.7386255264287 -546.6079550534487)"><rect x="0" y="0" width="159" height="74" rx="10" ry="10" style="fill:#008000;stroke:#707070;stroke-width:1px;"/><g transform="translate (15 5) scale(0.005859375)" style="fill:#EEEEEE;"><g transform="translate(8201.333333333334 2048) scale (1 -1)"><path d="M494 774L596 774Q739 774 810 830.5Q881 887 881 995Q881 1104 821.5 1156Q762 1208 635 1208L494 1208ZM1194 1006Q1194 770 1046.5 645Q899 520 627 520L494 520L494 0L184 0L184 1462L651 1462Q917 1462 1055.5 1347.5Q1194 1233 1194 1006Z"/></g><g transform="translate(9487.333333333334 2048) scale (1 -1)"><path d="M494 813L594 813Q741 813 811 862Q881 911 881 1016Q881 1120 809.5 1164Q738 1208 588 1208L494 1208ZM494 561L494 0L184 0L184 1462L610 1462Q908 1462 1051 1353.5Q1194 1245 1194 1024Q1194 895 1123 794.5Q1052 694 922 637L1352 0L1008 0L659 561Z"/></g><g transform="translate(10839.333333333334 2048) scale (1 -1)"><path d="M1511 733Q1511 370 1331 175Q1151 -20 815 -20Q479 -20 299 175Q119 370 119 735Q119 1100 299.5 1292.5Q480 1485 817 1485Q1154 1485 1332.5 1291Q1511 1097 1511 733ZM444 733Q444 488 537 364Q630 240 815 240Q1186 240 1186 733Q1186 1227 817 1227Q632 1227 538 1102.5Q444 978 444 733Z"/></g><g transform="translate(12469.333333333334 2048) scale (1 -1)"><path d="M1397 745Q1397 384 1191.5 192Q986 0 598 0L184 0L184 1462L643 1462Q1001 1462 1199 1273Q1397 1084 1397 745ZM1075 737Q1075 1208 659 1208L494 1208L494 256L627 256Q1075 256 1075 737Z"/></g><g transform="translate(3983.333333333334 4778.666666666666) scale (1 -1)"><path d="M774 -20Q577 -20 465 123L449 123Q465 -17 465 -39L465 -492L160 -492L160 1118L408 1118L451 973L465 973Q572 1139 782 1139Q980 1139 1092 986Q1204 833 1204 561Q1204 382 1151.5 250Q1099 118 1002 49Q905 -20 774 -20ZM684 895Q571 895 519 825.5Q467 756 465 596L465 563Q465 383 518.5 305Q572 227 688 227Q893 227 893 565Q893 730 842.5 812.5Q792 895 684 895Z"/></g><g transform="translate(5279.333333333334 4778.666666666666) scale (1 -1)"><path d="M870 0L811 152L803 152Q726 55 644.5 17.5Q563 -20 432 -20Q271 -20 178.5 72Q86 164 86 334Q86 512 210.5 596.5Q335 681 586 690L780 696L780 745Q780 915 606 915Q472 915 291 834L190 1040Q383 1141 618 1141Q843 1141 963 1043Q1083 945 1083 745L1083 0ZM780 518L662 514Q529 510 464 466Q399 422 399 332Q399 203 547 203Q653 203 716.5 264Q780 325 780 426Z"/></g><g transform="translate(6516.333333333334 4778.666666666666) scale (1 -1)"><path d="M1079 0L993 391L879 885L870 885L666 0L338 0L20 1118L324 1118L453 623Q475 535 514 256L522 256Q526 332 557 497L573 582L711 1118L1047 1118L1178 582Q1190 527 1207.5 420.5Q1225 314 1227 256L1235 256Q1246 345 1266 458.5Q1286 572 1300 623L1434 1118L1733 1118L1411 0Z"/></g><g transform="translate(8269.333333333334 4778.666666666666) scale (1 -1)"><path d="M623 922Q526 922 471 860.5Q416 799 408 686L836 686Q834 799 777 860.5Q720 922 623 922ZM666 -20Q396 -20 244 129Q92 278 92 551Q92 832 232.5 985.5Q373 1139 621 1139Q858 1139 990 1004Q1122 869 1122 631L1122 483L401 483Q406 353 478 280Q550 207 680 207Q781 207 871 228Q961 249 1059 295L1059 59Q979 19 888 -0.5Q797 -20 666 -20Z"/></g><g transform="translate(9479.333333333334 4778.666666666666) scale (1 -1)"><path d="M465 0L160 0L160 1556L465 1556Z"/></g><g transform="translate(10104.333333333334 4778.666666666666) scale (1 -1)"><path d="M782 1139Q980 1139 1092 984.5Q1204 830 1204 561Q1204 284 1088.5 132Q973 -20 774 -20Q577 -20 465 123L444 123L393 0L160 0L160 1556L465 1556L465 1194Q465 1125 453 973L465 973Q572 1139 782 1139ZM684 895Q571 895 519 825.5Q467 756 465 596L465 563Q465 383 518.5 305Q572 227 688 227Q782 227 837.5 313.5Q893 400 893 565Q893 730 837 812.5Q781 895 684 895Z"/></g><g transform="translate(11400.333333333334 4778.666666666666) scale (1 -1)"><path d="M870 0L811 152L803 152Q726 55 644.5 17.5Q563 -20 432 -20Q271 -20 178.5 72Q86 164 86 334Q86 512 210.5 596.5Q335 681 586 690L780 696L780 745Q780 915 606 915Q472 915 291 834L190 1040Q383 1141 618 1141Q843 1141 963 1043Q1083 945 1083 745L1083 0ZM780 518L662 514Q529 510 464 466Q399 422 399 332Q399 203 547 203Q653 203 716.5 264Q780 325 780 426Z"/></g><g transform="translate(12637.333333333334 4778.666666666666) scale (1 -1)"><path d="M1192 0L887 0L887 653Q887 774 844 834.5Q801 895 707 895Q579 895 522 809.5Q465 724 465 526L465 0L160 0L160 1118L393 1118L434 975L451 975Q502 1056 591.5 1097.5Q681 1139 795 1139Q990 1139 1091 1033.5Q1192 928 1192 729Z"/></g><g transform="translate(13983.333333333334 4778.666666666666) scale (1 -1)"><path d="M870 0L811 152L803 152Q726 55 644.5 17.5Q563 -20 432 -20Q271 -20 178.5 72Q86 164 86 334Q86 512 210.5 596.5Q335 681 586 690L780 696L780 745Q780 915 606 915Q472 915 291 834L190 1040Q383 1141 618 1141Q843 1141 963 1043Q1083 945 1083 745L1083 0ZM780 518L662 514Q529 510 464 466Q399 422 399 332Q399 203 547 203Q653 203 716.5 264Q780 325 780 426Z"/></g><g transform="translate(15220.333333333334 4778.666666666666) scale (1 -1)"><path d="M117 143Q117 227 162 270Q207 313 293 313Q376 313 421.5 269Q467 225 467 143Q467 64 421 18.5Q375 -27 293 -27Q209 -27 163 17.5Q117 62 117 143Z"/></g><g transform="translate(15804.333333333334 4778.666666666666) scale (1 -1)"><path d="M614 -20Q92 -20 92 553Q92 838 234 988.5Q376 1139 641 1139Q835 1139 989 1063L899 827Q827 856 765 874.5Q703 893 641 893Q403 893 403 555Q403 227 641 227Q729 227 804 250.5Q879 274 954 324L954 63Q880 16 804.5 -2Q729 -20 614 -20Z"/></g><g transform="translate(16857.333333333336 4778.666666666666) scale (1 -1)"><path d="M1192 0L887 0L887 653Q887 895 707 895Q579 895 522 808Q465 721 465 526L465 0L160 0L160 1556L465 1556L465 1239Q465 1202 458 1065L451 975L467 975Q569 1139 791 1139Q988 1139 1090 1033Q1192 927 1192 729Z"/></g><g transform="translate(84.33333333333394 10240) scale (1 -1)"><path d="M82 561Q82 826 159.5 1057Q237 1288 383 1462L633 1462Q492 1269 420 1038Q348 807 348 563Q348 318 421.5 89.5Q495 -139 631 -324L383 -324Q236 -154 159 73Q82 300 82 561Z"/></g><g transform="translate(778.3333333333339 10240) scale (1 -1)"><path d="M1161 0L856 0L856 653Q856 774 815.5 834.5Q775 895 688 895Q571 895 518 809Q465 723 465 526L465 0L160 0L160 1118L393 1118L434 975L451 975Q496 1052 581 1095.5Q666 1139 776 1139Q1027 1139 1116 975L1143 975Q1188 1053 1275.5 1096Q1363 1139 1473 1139Q1663 1139 1760.5 1041.5Q1858 944 1858 729L1858 0L1552 0L1552 653Q1552 774 1511.5 834.5Q1471 895 1384 895Q1272 895 1216.5 815Q1161 735 1161 561Z"/></g><g transform="translate(2789.333333333334 10240) scale (1 -1)"><path d="M870 0L811 152L803 152Q726 55 644.5 17.5Q563 -20 432 -20Q271 -20 178.5 72Q86 164 86 334Q86 512 210.5 596.5Q335 681 586 690L780 696L780 745Q780 915 606 915Q472 915 291 834L190 1040Q383 1141 618 1141Q843 1141 963 1043Q1083 945 1083 745L1083 0ZM780 518L662 514Q529 510 464 466Q399 422 399 332Q399 203 547 203Q653 203 716.5 264Q780 325 780 426Z"/></g><g transform="translate(4026.333333333334 10240) scale (1 -1)"><path d="M1192 0L887 0L887 653Q887 774 844 834.5Q801 895 707 895Q579 895 522 809.5Q465 724 465 526L465 0L160 0L160 1118L393 1118L434 975L451 975Q502 1056 591.5 1097.5Q681 1139 795 1139Q990 1139 1091 1033.5Q1192 928 1192 729Z"/></g><g transform="translate(5372.333333333334 10240) scale (1 -1)"><path d="M952 0L911 143L895 143Q846 65 756 22.5Q666 -20 551 -20Q354 -20 254 85.5Q154 191 154 389L154 1118L459 1118L459 465Q459 344 502 283.5Q545 223 639 223Q767 223 824 308.5Q881 394 881 592L881 1118L1186 1118L1186 0Z"/></g><g transform="translate(6718.333333333334 10240) scale (1 -1)"><path d="M870 0L811 152L803 152Q726 55 644.5 17.5Q563 -20 432 -20Q271 -20 178.5 72Q86 164 86 334Q86 512 210.5 596.5Q335 681 586 690L780 696L780 745Q780 915 606 915Q472 915 291 834L190 1040Q383 1141 618 1141Q843 1141 963 1043Q1083 945 1083 745L1083 0ZM780 518L662 514Q529 510 464 466Q399 422 399 332Q399 203 547 203Q653 203 716.5 264Q780 325 780 426Z"/></g><g transform="translate(7955.333333333334 10240) scale (1 -1)"><path d="M465 0L160 0L160 1556L465 1556Z"/></g><g transform="translate(9112.333333333334 10240) scale (1 -1)"><path d="M514 -20Q317 -20 204.5 133Q92 286 92 557Q92 832 206.5 985.5Q321 1139 522 1139Q733 1139 844 975L854 975Q831 1100 831 1198L831 1556L1137 1556L1137 0L903 0L844 145L831 145Q727 -20 514 -20ZM621 223Q738 223 792.5 291Q847 359 852 522L852 555Q852 735 796.5 813Q741 891 616 891Q514 891 457.5 804.5Q401 718 401 553Q401 388 458 305.5Q515 223 621 223Z"/></g><g transform="translate(10408.333333333334 10240) scale (1 -1)"><path d="M623 922Q526 922 471 860.5Q416 799 408 686L836 686Q834 799 777 860.5Q720 922 623 922ZM666 -20Q396 -20 244 129Q92 278 92 551Q92 832 232.5 985.5Q373 1139 621 1139Q858 1139 990 1004Q1122 869 1122 631L1122 483L401 483Q406 353 478 280Q550 207 680 207Q781 207 871 228Q961 249 1059 295L1059 59Q979 19 888 -0.5Q797 -20 666 -20Z"/></g><g transform="translate(11618.333333333334 10240) scale (1 -1)"><path d="M774 -20Q577 -20 465 123L449 123Q465 -17 465 -39L465 -492L160 -492L160 1118L408 1118L451 973L465 973Q572 1139 782 1139Q980 1139 1092 986Q1204 833 1204 561Q1204 382 1151.5 250Q1099 118 1002 49Q905 -20 774 -20ZM684 895Q571 895 519 825.5Q467 756 465 596L465 563Q465 383 518.5 305Q572 227 688 227Q893 227 893 565Q893 730 842.5 812.5Q792 895 684 895Z"/></g><g transform="translate(12914.333333333334 10240) scale (1 -1)"><path d="M465 0L160 0L160 1556L465 1556Z"/></g><g transform="translate(13539.333333333334 10240) scale (1 -1)"><path d="M403 561Q403 395 457.5 310Q512 225 635 225Q757 225 810.5 309.5Q864 394 864 561Q864 727 810 810Q756 893 633 893Q511 893 457 810.5Q403 728 403 561ZM1176 561Q1176 288 1032 134Q888 -20 631 -20Q470 -20 347 50.5Q224 121 158 253Q92 385 92 561Q92 835 235 987Q378 1139 637 1139Q798 1139 921 1069Q1044 999 1110 868Q1176 737 1176 561Z"/></g><g transform="translate(14807.333333333334 10240) scale (1 -1)"><path d="M0 1118L334 1118L545 489Q572 407 582 295L588 295Q599 398 631 489L838 1118L1165 1118L692 -143Q627 -318 506.5 -405Q386 -492 225 -492Q146 -492 70 -475L70 -233Q125 -246 190 -246Q271 -246 331.5 -196.5Q392 -147 426 -47L444 8Z"/></g><g transform="translate(15972.333333333334 10240) scale (1 -1)"><path d="M1161 0L856 0L856 653Q856 774 815.5 834.5Q775 895 688 895Q571 895 518 809Q465 723 465 526L465 0L160 0L160 1118L393 1118L434 975L451 975Q496 1052 581 1095.5Q666 1139 776 1139Q1027 1139 1116 975L1143 975Q1188 1053 1275.5 1096Q1363 1139 1473 1139Q1663 1139 1760.5 1041.5Q1858 944 1858 729L1858 0L1552 0L1552 653Q1552 774 1511.5 834.5Q1471 895 1384 895Q1272 895 1216.5 815Q1161 735 1161 561Z"/></g><g transform="translate(17983.333333333336 10240) scale (1 -1)"><path d="M623 922Q526 922 471 860.5Q416 799 408 686L836 686Q834 799 777 860.5Q720 922 623 922ZM666 -20Q396 -20 244 129Q92 278 92 551Q92 832 232.5 985.5Q373 1139 621 1139Q858 1139 990 1004Q1122 869 1122 631L1122 483L401 483Q406 353 478 280Q550 207 680 207Q781 207 871 228Q961 249 1059 295L1059 59Q979 19 888 -0.5Q797 -20 666 -20Z"/></g><g transform="translate(19193.333333333336 10240) scale (1 -1)"><path d="M1192 0L887 0L887 653Q887 774 844 834.5Q801 895 707 895Q579 895 522 809.5Q465 724 465 526L465 0L160 0L160 1118L393 1118L434 975L451 975Q502 1056 591.5 1097.5Q681 1139 795 1139Q990 1139 1091 1033.5Q1192 928 1192 729Z"/></g><g transform="translate(20539.333333333336 10240) scale (1 -1)"><path d="M631 223Q711 223 823 258L823 31Q709 -20 543 -20Q360 -20 276.5 72.5Q193 165 193 350L193 889L47 889L47 1018L215 1120L303 1356L498 1356L498 1118L811 1118L811 889L498 889L498 350Q498 285 534.5 254Q571 223 631 223Z"/></g><g transform="translate(21428.333333333336 10240) scale (1 -1)"><path d="M612 561Q612 298 534.5 71Q457 -156 311 -324L63 -324Q198 -140 272 88.5Q346 317 346 563Q346 807 274 1038Q202 1269 61 1462L311 1462Q458 1287 535 1055.5Q612 824 612 561Z"/></g></g></g><g transform="translate(-1839.7386255264287 -530.6079550534487)"><rect x="0" y="0" width="121" height="42" rx="10" ry="10" style="fill:#FFFFFF;stroke:#707070;stroke-width:1px;"/><g transform="translate (5 5) scale(0.005859375)" style="fill:#000000;"><g transform="translate(16.5 2048) scale (1 -1)"><path d="M1397 745Q1397 384 1191.5 192Q986 0 598 0L184 0L184 1462L643 1462Q1001 1462 1199 1273Q1397 1084 1397 745ZM1075 737Q1075 1208 659 1208L494 1208L494 256L627 256Q1075 256 1075 737Z"/></g><g transform="translate(1532.5 2048) scale (1 -1)"><path d="M623 922Q526 922 471 860.5Q416 799 408 686L836 686Q834 799 777 860.5Q720 922 623 922ZM666 -20Q396 -20 244 129Q92 278 92 551Q92 832 232.5 985.5Q373 1139 621 1139Q858 1139 990 1004Q1122 869 1122 631L1122 483L401 483Q406 353 478 280Q550 207 680 207Q781 207 871 228Q961 249 1059 295L1059 59Q979 19 888 -0.5Q797 -20 666 -20Z"/></g><g transform="translate(2742.5 2048) scale (1 -1)"><path d="M774 -20Q577 -20 465 123L449 123Q465 -17 465 -39L465 -492L160 -492L160 1118L408 1118L451 973L465 973Q572 1139 782 1139Q980 1139 1092 986Q1204 833 1204 561Q1204 382 1151.5 250Q1099 118 1002 49Q905 -20 774 -20ZM684 895Q571 895 519 825.5Q467 756 465 596L465 563Q465 383 518.5 305Q572 227 688 227Q893 227 893 565Q893 730 842.5 812.5Q792 895 684 895Z"/></g><g transform="translate(4038.5 2048) scale (1 -1)"><path d="M465 0L160 0L160 1556L465 1556Z"/></g><g transform="translate(4663.5 2048) scale (1 -1)"><path d="M403 561Q403 395 457.5 310Q512 225 635 225Q757 225 810.5 309.5Q864 394 864 561Q864 727 810 810Q756 893 633 893Q511 893 457 810.5Q403 728 403 561ZM1176 561Q1176 288 1032 134Q888 -20 631 -20Q470 -20 347 50.5Q224 121 158 253Q92 385 92 561Q92 835 235 987Q378 1139 637 1139Q798 1139 921 1069Q1044 999 1110 868Q1176 737 1176 561Z"/></g><g transform="translate(5931.5 2048) scale (1 -1)"><path d="M0 1118L334 1118L545 489Q572 407 582 295L588 295Q599 398 631 489L838 1118L1165 1118L692 -143Q627 -318 506.5 -405Q386 -492 225 -492Q146 -492 70 -475L70 -233Q125 -246 190 -246Q271 -246 331.5 -196.5Q392 -147 426 -47L444 8Z"/></g><g transform="translate(7628.5 2048) scale (1 -1)"><path d="M631 223Q711 223 823 258L823 31Q709 -20 543 -20Q360 -20 276.5 72.5Q193 165 193 350L193 889L47 889L47 1018L215 1120L303 1356L498 1356L498 1118L811 1118L811 889L498 889L498 350Q498 285 534.5 254Q571 223 631 223Z"/></g><g transform="translate(8517.5 2048) scale (1 -1)"><path d="M403 561Q403 395 457.5 310Q512 225 635 225Q757 225 810.5 309.5Q864 394 864 561Q864 727 810 810Q756 893 633 893Q511 893 457 810.5Q403 728 403 561ZM1176 561Q1176 288 1032 134Q888 -20 631 -20Q470 -20 347 50.5Q224 121 158 253Q92 385 92 561Q92 835 235 987Q378 1139 637 1139Q798 1139 921 1069Q1044 999 1110 868Q1176 737 1176 561Z"/></g><g transform="translate(10317.5 2048) scale (1 -1)"><path d="M489 0L184 0L184 1462L1022 1462L1022 1208L489 1208L489 831L985 831L985 578L489 578Z"/></g><g transform="translate(11441.5 2048) scale (1 -1)"><path d="M147 1407Q147 1556 313 1556Q479 1556 479 1407Q479 1336 437.5 1296.5Q396 1257 313 1257Q147 1257 147 1407ZM465 0L160 0L160 1118L465 1118Z"/></g><g transform="translate(12066.5 2048) scale (1 -1)"><path d="M784 1139Q846 1139 887 1130L864 844Q827 854 774 854Q628 854 546.5 779Q465 704 465 569L465 0L160 0L160 1118L391 1118L436 930L451 930Q503 1024 591.5 1081.5Q680 1139 784 1139Z"/></g><g transform="translate(12996.5 2048) scale (1 -1)"><path d="M623 922Q526 922 471 860.5Q416 799 408 686L836 686Q834 799 777 860.5Q720 922 623 922ZM666 -20Q396 -20 244 129Q92 278 92 551Q92 832 232.5 985.5Q373 1139 621 1139Q858 1139 990 1004Q1122 869 1122 631L1122 483L401 483Q406 353 478 280Q550 207 680 207Q781 207 871 228Q961 249 1059 295L1059 59Q979 19 888 -0.5Q797 -20 666 -20Z"/></g><g transform="translate(14206.5 2048) scale (1 -1)"><path d="M782 1139Q980 1139 1092 984.5Q1204 830 1204 561Q1204 284 1088.5 132Q973 -20 774 -20Q577 -20 465 123L444 123L393 0L160 0L160 1556L465 1556L465 1194Q465 1125 453 973L465 973Q572 1139 782 1139ZM684 895Q571 895 519 825.5Q467 756 465 596L465 563Q465 383 518.5 305Q572 227 688 227Q782 227 837.5 313.5Q893 400 893 565Q893 730 837 812.5Q781 895 684 895Z"/></g><g transform="translate(15502.5 2048) scale (1 -1)"><path d="M870 0L811 152L803 152Q726 55 644.5 17.5Q563 -20 432 -20Q271 -20 178.5 72Q86 164 86 334Q86 512 210.5 596.5Q335 681 586 690L780 696L780 745Q780 915 606 915Q472 915 291 834L190 1040Q383 1141 618 1141Q843 1141 963 1043Q1083 945 1083 745L1083 0ZM780 518L662 514Q529 510 464 466Q399 422 399 332Q399 203 547 203Q653 203 716.5 264Q780 325 780 426Z"/></g><g transform="translate(16739.5 2048) scale (1 -1)"><path d="M940 332Q940 160 820.5 70Q701 -20 463 -20Q341 -20 255 -3.5Q169 13 94 45L94 297Q179 257 285.5 230Q392 203 473 203Q639 203 639 299Q639 335 617 357.5Q595 380 541 408.5Q487 437 397 475Q268 529 207.5 575Q147 621 119.5 680.5Q92 740 92 827Q92 976 207.5 1057.5Q323 1139 535 1139Q737 1139 928 1051L836 831Q752 867 679 890Q606 913 530 913Q395 913 395 840Q395 799 438.5 769Q482 739 629 680Q760 627 821 581Q882 535 911 475Q940 415 940 332Z"/></g><g transform="translate(17757.5 2048) scale (1 -1)"><path d="M623 922Q526 922 471 860.5Q416 799 408 686L836 686Q834 799 777 860.5Q720 922 623 922ZM666 -20Q396 -20 244 129Q92 278 92 551Q92 832 232.5 985.5Q373 1139 621 1139Q858 1139 990 1004Q1122 869 1122 631L1122 483L401 483Q406 353 478 280Q550 207 680 207Q781 207 871 228Q961 249 1059 295L1059 59Q979 19 888 -0.5Q797 -20 666 -20Z"/></g><g transform="translate(4415.5 4778.666666666666) scale (1 -1)"><path d="M82 561Q82 826 159.5 1057Q237 1288 383 1462L633 1462Q492 1269 420 1038Q348 807 348 563Q348 318 421.5 89.5Q495 -139 631 -324L383 -324Q236 -154 159 73Q82 300 82 561Z"/></g><g transform="translate(5109.5 4778.666666666666) scale (1 -1)"><path d="M748 0L438 0L438 1204L41 1204L41 1462L1145 1462L1145 1204L748 1204Z"/></g><g transform="translate(6295.5 4778.666666666666) scale (1 -1)"><path d="M784 1139Q846 1139 887 1130L864 844Q827 854 774 854Q628 854 546.5 779Q465 704 465 569L465 0L160 0L160 1118L391 1118L436 930L451 930Q503 1024 591.5 1081.5Q680 1139 784 1139Z"/></g><g transform="translate(7225.5 4778.666666666666) scale (1 -1)"><path d="M870 0L811 152L803 152Q726 55 644.5 17.5Q563 -20 432 -20Q271 -20 178.5 72Q86 164 86 334Q86 512 210.5 596.5Q335 681 586 690L780 696L780 745Q780 915 606 915Q472 915 291 834L190 1040Q383 1141 618 1141Q843 1141 963 1043Q1083 945 1083 745L1083 0ZM780 518L662 514Q529 510 464 466Q399 422 399 332Q399 203 547 203Q653 203 716.5 264Q780 325 780 426Z"/></g><g transform="translate(8462.5 4778.666666666666) scale (1 -1)"><path d="M426 0L0 1118L319 1118L535 481Q568 377 578 252L586 252Q592 365 631 481L846 1118L1165 1118L739 0Z"/></g><g transform="translate(9627.5 4778.666666666666) scale (1 -1)"><path d="M147 1407Q147 1556 313 1556Q479 1556 479 1407Q479 1336 437.5 1296.5Q396 1257 313 1257Q147 1257 147 1407ZM465 0L160 0L160 1118L465 1118Z"/></g><g transform="translate(10252.5 4778.666666666666) scale (1 -1)"><path d="M940 332Q940 160 820.5 70Q701 -20 463 -20Q341 -20 255 -3.5Q169 13 94 45L94 297Q179 257 285.5 230Q392 203 473 203Q639 203 639 299Q639 335 617 357.5Q595 380 541 408.5Q487 437 397 475Q268 529 207.5 575Q147 621 119.5 680.5Q92 740 92 827Q92 976 207.5 1057.5Q323 1139 535 1139Q737 1139 928 1051L836 831Q752 867 679 890Q606 913 530 913Q395 913 395 840Q395 799 438.5 769Q482 739 629 680Q760 627 821 581Q882 535 911 475Q940 415 940 332Z"/></g><g transform="translate(11802.5 4778.666666666666) scale (1 -1)"><path d="M805 1225Q630 1225 534 1093.5Q438 962 438 727Q438 238 805 238Q959 238 1178 315L1178 55Q998 -20 776 -20Q457 -20 288 173.5Q119 367 119 729Q119 957 202 1128.5Q285 1300 440.5 1391.5Q596 1483 805 1483Q1018 1483 1233 1380L1133 1128Q1051 1167 968 1196Q885 1225 805 1225Z"/></g><g transform="translate(13107.5 4778.666666666666) scale (1 -1)"><path d="M731 0L66 0L66 176L244 258L244 1204L66 1286L66 1462L731 1462L731 1286L553 1204L553 258L731 176Z"/></g><g transform="translate(13904.5 4778.666666666666) scale (1 -1)"><path d="M612 561Q612 298 534.5 71Q457 -156 311 -324L63 -324Q198 -140 272 88.5Q346 317 346 563Q346 807 274 1038Q202 1269 61 1462L311 1462Q458 1287 535 1055.5Q612 824 612 561Z"/></g></g></g><g transform="translate(-2089.666664123535 -539.5)"><rect x="0" y="0" width="175" height="58" rx="10" ry="10" style="fill:#FFFFFF;stroke:#707070;stroke-width:1px;"/><g transform="translate (5 5) scale(0.005859375)" style="fill:#000000;"><g transform="translate(1736 2048) scale (1 -1)"><path d="M731 0L66 0L66 176L244 258L244 1204L66 1286L66 1462L731 1462L731 1286L553 1204L553 258L731 176Z"/></g><g transform="translate(2533 2048) scale (1 -1)"><path d="M1161 0L856 0L856 653Q856 774 815.5 834.5Q775 895 688 895Q571 895 518 809Q465 723 465 526L465 0L160 0L160 1118L393 1118L434 975L451 975Q496 1052 581 1095.5Q666 1139 776 1139Q1027 1139 1116 975L1143 975Q1188 1053 1275.5 1096Q1363 1139 1473 1139Q1663 1139 1760.5 1041.5Q1858 944 1858 729L1858 0L1552 0L1552 653Q1552 774 1511.5 834.5Q1471 895 1384 895Q1272 895 1216.5 815Q1161 735 1161 561Z"/></g><g transform="translate(4544 2048) scale (1 -1)"><path d="M774 -20Q577 -20 465 123L449 123Q465 -17 465 -39L465 -492L160 -492L160 1118L408 1118L451 973L465 973Q572 1139 782 1139Q980 1139 1092 986Q1204 833 1204 561Q1204 382 1151.5 250Q1099 118 1002 49Q905 -20 774 -20ZM684 895Q571 895 519 825.5Q467 756 465 596L465 563Q465 383 518.5 305Q572 227 688 227Q893 227 893 565Q893 730 842.5 812.5Q792 895 684 895Z"/></g><g transform="translate(5840 2048) scale (1 -1)"><path d="M403 561Q403 395 457.5 310Q512 225 635 225Q757 225 810.5 309.5Q864 394 864 561Q864 727 810 810Q756 893 633 893Q511 893 457 810.5Q403 728 403 561ZM1176 561Q1176 288 1032 134Q888 -20 631 -20Q470 -20 347 50.5Q224 121 158 253Q92 385 92 561Q92 835 235 987Q378 1139 637 1139Q798 1139 921 1069Q1044 999 1110 868Q1176 737 1176 561Z"/></g><g transform="translate(7108 2048) scale (1 -1)"><path d="M784 1139Q846 1139 887 1130L864 844Q827 854 774 854Q628 854 546.5 779Q465 704 465 569L465 0L160 0L160 1118L391 1118L436 930L451 930Q503 1024 591.5 1081.5Q680 1139 784 1139Z"/></g><g transform="translate(8038 2048) scale (1 -1)"><path d="M631 223Q711 223 823 258L823 31Q709 -20 543 -20Q360 -20 276.5 72.5Q193 165 193 350L193 889L47 889L47 1018L215 1120L303 1356L498 1356L498 1118L811 1118L811 889L498 889L498 350Q498 285 534.5 254Q571 223 631 223Z"/></g><g transform="translate(9459 2048) scale (1 -1)"><path d="M774 -20Q577 -20 465 123L449 123Q465 -17 465 -39L465 -492L160 -492L160 1118L408 1118L451 973L465 973Q572 1139 782 1139Q980 1139 1092 986Q1204 833 1204 561Q1204 382 1151.5 250Q1099 118 1002 49Q905 -20 774 -20ZM684 895Q571 895 519 825.5Q467 756 465 596L465 563Q465 383 518.5 305Q572 227 688 227Q893 227 893 565Q893 730 842.5 812.5Q792 895 684 895Z"/></g><g transform="translate(10755 2048) scale (1 -1)"><path d="M952 0L911 143L895 143Q846 65 756 22.5Q666 -20 551 -20Q354 -20 254 85.5Q154 191 154 389L154 1118L459 1118L459 465Q459 344 502 283.5Q545 223 639 223Q767 223 824 308.5Q881 394 881 592L881 1118L1186 1118L1186 0Z"/></g><g transform="translate(12101 2048) scale (1 -1)"><path d="M782 1139Q980 1139 1092 984.5Q1204 830 1204 561Q1204 284 1088.5 132Q973 -20 774 -20Q577 -20 465 123L444 123L393 0L160 0L160 1556L465 1556L465 1194Q465 1125 453 973L465 973Q572 1139 782 1139ZM684 895Q571 895 519 825.5Q467 756 465 596L465 563Q465 383 518.5 305Q572 227 688 227Q782 227 837.5 313.5Q893 400 893 565Q893 730 837 812.5Q781 895 684 895Z"/></g><g transform="translate(13397 2048) scale (1 -1)"><path d="M465 0L160 0L160 1556L465 1556Z"/></g><g transform="translate(14022 2048) scale (1 -1)"><path d="M147 1407Q147 1556 313 1556Q479 1556 479 1407Q479 1336 437.5 1296.5Q396 1257 313 1257Q147 1257 147 1407ZM465 0L160 0L160 1118L465 1118Z"/></g><g transform="translate(14647 2048) scale (1 -1)"><path d="M614 -20Q92 -20 92 553Q92 838 234 988.5Q376 1139 641 1139Q835 1139 989 1063L899 827Q827 856 765 874.5Q703 893 641 893Q403 893 403 555Q403 227 641 227Q729 227 804 250.5Q879 274 954 324L954 63Q880 16 804.5 -2Q729 -20 614 -20Z"/></g><g transform="translate(15700 2048) scale (1 -1)"><path d="M836 1462L291 0L14 0L559 1462Z"/></g><g transform="translate(17078 2048) scale (1 -1)"><path d="M514 -20Q317 -20 204.5 133Q92 286 92 557Q92 832 206.5 985.5Q321 1139 522 1139Q733 1139 844 975L854 975Q831 1100 831 1198L831 1556L1137 1556L1137 0L903 0L844 145L831 145Q727 -20 514 -20ZM621 223Q738 223 792.5 291Q847 359 852 522L852 555Q852 735 796.5 813Q741 891 616 891Q514 891 457.5 804.5Q401 718 401 553Q401 388 458 305.5Q515 223 621 223Z"/></g><g transform="translate(18374 2048) scale (1 -1)"><path d="M147 1407Q147 1556 313 1556Q479 1556 479 1407Q479 1336 437.5 1296.5Q396 1257 313 1257Q147 1257 147 1407ZM465 0L160 0L160 1118L465 1118Z"/></g><g transform="translate(18999 2048) scale (1 -1)"><path d="M784 1139Q846 1139 887 1130L864 844Q827 854 774 854Q628 854 546.5 779Q465 704 465 569L465 0L160 0L160 1118L391 1118L436 930L451 930Q503 1024 591.5 1081.5Q680 1139 784 1139Z"/></g><g transform="translate(19929 2048) scale (1 -1)"><path d="M623 922Q526 922 471 860.5Q416 799 408 686L836 686Q834 799 777 860.5Q720 922 623 922ZM666 -20Q396 -20 244 129Q92 278 92 551Q92 832 232.5 985.5Q373 1139 621 1139Q858 1139 990 1004Q1122 869 1122 631L1122 483L401 483Q406 353 478 280Q550 207 680 207Q781 207 871 228Q961 249 1059 295L1059 59Q979 19 888 -0.5Q797 -20 666 -20Z"/></g><g transform="translate(21139 2048) scale (1 -1)"><path d="M614 -20Q92 -20 92 553Q92 838 234 988.5Q376 1139 641 1139Q835 1139 989 1063L899 827Q827 856 765 874.5Q703 893 641 893Q403 893 403 555Q403 227 641 227Q729 227 804 250.5Q879 274 954 324L954 63Q880 16 804.5 -2Q729 -20 614 -20Z"/></g><g transform="translate(22192 2048) scale (1 -1)"><path d="M631 223Q711 223 823 258L823 31Q709 -20 543 -20Q360 -20 276.5 72.5Q193 165 193 350L193 889L47 889L47 1018L215 1120L303 1356L498 1356L498 1118L811 1118L811 889L498 889L498 350Q498 285 534.5 254Q571 223 631 223Z"/></g><g transform="translate(23081 2048) scale (1 -1)"><path d="M403 561Q403 395 457.5 310Q512 225 635 225Q757 225 810.5 309.5Q864 394 864 561Q864 727 810 810Q756 893 633 893Q511 893 457 810.5Q403 728 403 561ZM1176 561Q1176 288 1032 134Q888 -20 631 -20Q470 -20 347 50.5Q224 121 158 253Q92 385 92 561Q92 835 235 987Q378 1139 637 1139Q798 1139 921 1069Q1044 999 1110 868Q1176 737 1176 561Z"/></g><g transform="translate(24349 2048) scale (1 -1)"><path d="M784 1139Q846 1139 887 1130L864 844Q827 854 774 854Q628 854 546.5 779Q465 704 465 569L465 0L160 0L160 1118L391 1118L436 930L451 930Q503 1024 591.5 1081.5Q680 1139 784 1139Z"/></g><g transform="translate(25279 2048) scale (1 -1)"><path d="M0 1118L334 1118L545 489Q572 407 582 295L588 295Q599 398 631 489L838 1118L1165 1118L692 -143Q627 -318 506.5 -405Q386 -492 225 -492Q146 -492 70 -475L70 -233Q125 -246 190 -246Q271 -246 331.5 -196.5Q392 -147 426 -47L444 8Z"/></g><g transform="translate(67.5 4778.666666666666) scale (1 -1)"><path d="M778 889L514 889L514 0L209 0L209 889L41 889L41 1036L209 1118L209 1200Q209 1391 303 1479Q397 1567 604 1567Q762 1567 885 1520L807 1296Q715 1325 637 1325Q572 1325 543 1286.5Q514 1248 514 1188L514 1118L778 1118Z"/></g><g transform="translate(860.5 4778.666666666666) scale (1 -1)"><path d="M784 1139Q846 1139 887 1130L864 844Q827 854 774 854Q628 854 546.5 779Q465 704 465 569L465 0L160 0L160 1118L391 1118L436 930L451 930Q503 1024 591.5 1081.5Q680 1139 784 1139Z"/></g><g transform="translate(1790.5 4778.666666666666) scale (1 -1)"><path d="M403 561Q403 395 457.5 310Q512 225 635 225Q757 225 810.5 309.5Q864 394 864 561Q864 727 810 810Q756 893 633 893Q511 893 457 810.5Q403 728 403 561ZM1176 561Q1176 288 1032 134Q888 -20 631 -20Q470 -20 347 50.5Q224 121 158 253Q92 385 92 561Q92 835 235 987Q378 1139 637 1139Q798 1139 921 1069Q1044 999 1110 868Q1176 737 1176 561Z"/></g><g transform="translate(3058.5 4778.666666666666) scale (1 -1)"><path d="M1161 0L856 0L856 653Q856 774 815.5 834.5Q775 895 688 895Q571 895 518 809Q465 723 465 526L465 0L160 0L160 1118L393 1118L434 975L451 975Q496 1052 581 1095.5Q666 1139 776 1139Q1027 1139 1116 975L1143 975Q1188 1053 1275.5 1096Q1363 1139 1473 1139Q1663 1139 1760.5 1041.5Q1858 944 1858 729L1858 0L1552 0L1552 653Q1552 774 1511.5 834.5Q1471 895 1384 895Q1272 895 1216.5 815Q1161 735 1161 561Z"/></g><g transform="translate(5601.5 4778.666666666666) scale (1 -1)"><path d="M940 332Q940 160 820.5 70Q701 -20 463 -20Q341 -20 255 -3.5Q169 13 94 45L94 297Q179 257 285.5 230Q392 203 473 203Q639 203 639 299Q639 335 617 357.5Q595 380 541 408.5Q487 437 397 475Q268 529 207.5 575Q147 621 119.5 680.5Q92 740 92 827Q92 976 207.5 1057.5Q323 1139 535 1139Q737 1139 928 1051L836 831Q752 867 679 890Q606 913 530 913Q395 913 395 840Q395 799 438.5 769Q482 739 629 680Q760 627 821 581Q882 535 911 475Q940 415 940 332Z"/></g><g transform="translate(6619.5 4778.666666666666) scale (1 -1)"><path d="M631 223Q711 223 823 258L823 31Q709 -20 543 -20Q360 -20 276.5 72.5Q193 165 193 350L193 889L47 889L47 1018L215 1120L303 1356L498 1356L498 1118L811 1118L811 889L498 889L498 350Q498 285 534.5 254Q571 223 631 223Z"/></g><g transform="translate(7508.5 4778.666666666666) scale (1 -1)"><path d="M870 0L811 152L803 152Q726 55 644.5 17.5Q563 -20 432 -20Q271 -20 178.5 72Q86 164 86 334Q86 512 210.5 596.5Q335 681 586 690L780 696L780 745Q780 915 606 915Q472 915 291 834L190 1040Q383 1141 618 1141Q843 1141 963 1043Q1083 945 1083 745L1083 0ZM780 518L662 514Q529 510 464 466Q399 422 399 332Q399 203 547 203Q653 203 716.5 264Q780 325 780 426Z"/></g><g transform="translate(8745.5 4778.666666666666) scale (1 -1)"><path d="M623 219Q746 219 799 289.5Q852 360 852 518L852 555Q852 734 796.5 812.5Q741 891 618 891Q403 891 403 553Q403 385 456.5 302Q510 219 623 219ZM1137 -2Q1137 -243 996.5 -367.5Q856 -492 578 -492Q333 -492 160 -426L160 -182Q363 -268 596 -268Q831 -268 831 -14L831 8L840 145L831 145Q724 -20 514 -20Q313 -20 202.5 135Q92 290 92 557Q92 832 206.5 985.5Q321 1139 522 1139Q728 1139 846 975L854 975L879 1118L1137 1118Z"/></g><g transform="translate(10041.5 4778.666666666666) scale (1 -1)"><path d="M147 1407Q147 1556 313 1556Q479 1556 479 1407Q479 1336 437.5 1296.5Q396 1257 313 1257Q147 1257 147 1407ZM465 0L160 0L160 1118L465 1118Z"/></g><g transform="translate(10666.5 4778.666666666666) scale (1 -1)"><path d="M1192 0L887 0L887 653Q887 774 844 834.5Q801 895 707 895Q579 895 522 809.5Q465 724 465 526L465 0L160 0L160 1118L393 1118L434 975L451 975Q502 1056 591.5 1097.5Q681 1139 795 1139Q990 1139 1091 1033.5Q1192 928 1192 729Z"/></g><g transform="translate(12012.5 4778.666666666666) scale (1 -1)"><path d="M623 219Q746 219 799 289.5Q852 360 852 518L852 555Q852 734 796.5 812.5Q741 891 618 891Q403 891 403 553Q403 385 456.5 302Q510 219 623 219ZM1137 -2Q1137 -243 996.5 -367.5Q856 -492 578 -492Q333 -492 160 -426L160 -182Q363 -268 596 -268Q831 -268 831 -14L831 8L840 145L831 145Q724 -20 514 -20Q313 -20 202.5 135Q92 290 92 557Q92 832 206.5 985.5Q321 1139 522 1139Q728 1139 846 975L854 975L879 1118L1137 1118Z"/></g><g transform="translate(13308.5 4778.666666666666) scale (1 -1)"><path d="M117 143Q117 227 162 270Q207 313 293 313Q376 313 421.5 269Q467 225 467 143Q467 64 421 18.5Q375 -27 293 -27Q209 -27 163 17.5Q117 62 117 143Z"/></g><g transform="translate(13892.5 4778.666666666666) scale (1 -1)"><path d="M774 -20Q577 -20 465 123L449 123Q465 -17 465 -39L465 -492L160 -492L160 1118L408 1118L451 973L465 973Q572 1139 782 1139Q980 1139 1092 986Q1204 833 1204 561Q1204 382 1151.5 250Q1099 118 1002 49Q905 -20 774 -20ZM684 895Q571 895 519 825.5Q467 756 465 596L465 563Q465 383 518.5 305Q572 227 688 227Q893 227 893 565Q893 730 842.5 812.5Q792 895 684 895Z"/></g><g transform="translate(15188.5 4778.666666666666) scale (1 -1)"><path d="M870 0L811 152L803 152Q726 55 644.5 17.5Q563 -20 432 -20Q271 -20 178.5 72Q86 164 86 334Q86 512 210.5 596.5Q335 681 586 690L780 696L780 745Q780 915 606 915Q472 915 291 834L190 1040Q383 1141 618 1141Q843 1141 963 1043Q1083 945 1083 745L1083 0ZM780 518L662 514Q529 510 464 466Q399 422 399 332Q399 203 547 203Q653 203 716.5 264Q780 325 780 426Z"/></g><g transform="translate(16425.5 4778.666666666666) scale (1 -1)"><path d="M1079 0L993 391L879 885L870 885L666 0L338 0L20 1118L324 1118L453 623Q475 535 514 256L522 256Q526 332 557 497L573 582L711 1118L1047 1118L1178 582Q1190 527 1207.5 420.5Q1225 314 1227 256L1235 256Q1246 345 1266 458.5Q1286 572 1300 623L1434 1118L1733 1118L1411 0Z"/></g><g transform="translate(18178.5 4778.666666666666) scale (1 -1)"><path d="M623 922Q526 922 471 860.5Q416 799 408 686L836 686Q834 799 777 860.5Q720 922 623 922ZM666 -20Q396 -20 244 129Q92 278 92 551Q92 832 232.5 985.5Q373 1139 621 1139Q858 1139 990 1004Q1122 869 1122 631L1122 483L401 483Q406 353 478 280Q550 207 680 207Q781 207 871 228Q961 249 1059 295L1059 59Q979 19 888 -0.5Q797 -20 666 -20Z"/></g><g transform="translate(19388.5 4778.666666666666) scale (1 -1)"><path d="M465 0L160 0L160 1556L465 1556Z"/></g><g transform="translate(20013.5 4778.666666666666) scale (1 -1)"><path d="M782 1139Q980 1139 1092 984.5Q1204 830 1204 561Q1204 284 1088.5 132Q973 -20 774 -20Q577 -20 465 123L444 123L393 0L160 0L160 1556L465 1556L465 1194Q465 1125 453 973L465 973Q572 1139 782 1139ZM684 895Q571 895 519 825.5Q467 756 465 596L465 563Q465 383 518.5 305Q572 227 688 227Q782 227 837.5 313.5Q893 400 893 565Q893 730 837 812.5Q781 895 684 895Z"/></g><g transform="translate(21309.5 4778.666666666666) scale (1 -1)"><path d="M870 0L811 152L803 152Q726 55 644.5 17.5Q563 -20 432 -20Q271 -20 178.5 72Q86 164 86 334Q86 512 210.5 596.5Q335 681 586 690L780 696L780 745Q780 915 606 915Q472 915 291 834L190 1040Q383 1141 618 1141Q843 1141 963 1043Q1083 945 1083 745L1083 0ZM780 518L662 514Q529 510 464 466Q399 422 399 332Q399 203 547 203Q653 203 716.5 264Q780 325 780 426Z"/></g><g transform="translate(22546.5 4778.666666666666) scale (1 -1)"><path d="M1192 0L887 0L887 653Q887 774 844 834.5Q801 895 707 895Q579 895 522 809.5Q465 724 465 526L465 0L160 0L160 1118L393 1118L434 975L451 975Q502 1056 591.5 1097.5Q681 1139 795 1139Q990 1139 1091 1033.5Q1192 928 1192 729Z"/></g><g transform="translate(23892.5 4778.666666666666) scale (1 -1)"><path d="M870 0L811 152L803 152Q726 55 644.5 17.5Q563 -20 432 -20Q271 -20 178.5 72Q86 164 86 334Q86 512 210.5 596.5Q335 681 586 690L780 696L780 745Q780 915 606 915Q472 915 291 834L190 1040Q383 1141 618 1141Q843 1141 963 1043Q1083 945 1083 745L1083 0ZM780 518L662 514Q529 510 464 466Q399 422 399 332Q399 203 547 203Q653 203 716.5 264Q780 325 780 426Z"/></g><g transform="translate(25129.5 4778.666666666666) scale (1 -1)"><path d="M117 143Q117 227 162 270Q207 313 293 313Q376 313 421.5 269Q467 225 467 143Q467 64 421 18.5Q375 -27 293 -27Q209 -27 163 17.5Q117 62 117 143Z"/></g><g transform="translate(25713.5 4778.666666666666) scale (1 -1)"><path d="M614 -20Q92 -20 92 553Q92 838 234 988.5Q376 1139 641 1139Q835 1139 989 1063L899 827Q827 856 765 874.5Q703 893 641 893Q403 893 403 555Q403 227 641 227Q729 227 804 250.5Q879 274 954 324L954 63Q880 16 804.5 -2Q729 -20 614 -20Z"/></g><g transform="translate(26766.5 4778.666666666666) scale (1 -1)"><path d="M1192 0L887 0L887 653Q887 895 707 895Q579 895 522 808Q465 721 465 526L465 0L160 0L160 1556L465 1556L465 1239Q465 1202 458 1065L451 975L467 975Q569 1139 791 1139Q988 1139 1090 1033Q1192 927 1192 729Z"/></g><g transform="translate(9023.5 7509.333333333333) scale (1 -1)"><path d="M82 561Q82 826 159.5 1057Q237 1288 383 1462L633 1462Q492 1269 420 1038Q348 807 348 563Q348 318 421.5 89.5Q495 -139 631 -324L383 -324Q236 -154 159 73Q82 300 82 561Z"/></g><g transform="translate(9717.5 7509.333333333333) scale (1 -1)"><path d="M748 0L438 0L438 1204L41 1204L41 1462L1145 1462L1145 1204L748 1204Z"/></g><g transform="translate(10903.5 7509.333333333333) scale (1 -1)"><path d="M784 1139Q846 1139 887 1130L864 844Q827 854 774 854Q628 854 546.5 779Q465 704 465 569L465 0L160 0L160 1118L391 1118L436 930L451 930Q503 1024 591.5 1081.5Q680 1139 784 1139Z"/></g><g transform="translate(11833.5 7509.333333333333) scale (1 -1)"><path d="M870 0L811 152L803 152Q726 55 644.5 17.5Q563 -20 432 -20Q271 -20 178.5 72Q86 164 86 334Q86 512 210.5 596.5Q335 681 586 690L780 696L780 745Q780 915 606 915Q472 915 291 834L190 1040Q383 1141 618 1141Q843 1141 963 1043Q1083 945 1083 745L1083 0ZM780 518L662 514Q529 510 464 466Q399 422 399 332Q399 203 547 203Q653 203 716.5 264Q780 325 780 426Z"/></g><g transform="translate(13070.5 7509.333333333333) scale (1 -1)"><path d="M426 0L0 1118L319 1118L535 481Q568 377 578 252L586 252Q592 365 631 481L846 1118L1165 1118L739 0Z"/></g><g transform="translate(14235.5 7509.333333333333) scale (1 -1)"><path d="M147 1407Q147 1556 313 1556Q479 1556 479 1407Q479 1336 437.5 1296.5Q396 1257 313 1257Q147 1257 147 1407ZM465 0L160 0L160 1118L465 1118Z"/></g><g transform="translate(14860.5 7509.333333333333) scale (1 -1)"><path d="M940 332Q940 160 820.5 70Q701 -20 463 -20Q341 -20 255 -3.5Q169 13 94 45L94 297Q179 257 285.5 230Q392 203 473 203Q639 203 639 299Q639 335 617 357.5Q595 380 541 408.5Q487 437 397 475Q268 529 207.5 575Q147 621 119.5 680.5Q92 740 92 827Q92 976 207.5 1057.5Q323 1139 535 1139Q737 1139 928 1051L836 831Q752 867 679 890Q606 913 530 913Q395 913 395 840Q395 799 438.5 769Q482 739 629 680Q760 627 821 581Q882 535 911 475Q940 415 940 332Z"/></g><g transform="translate(16410.5 7509.333333333333) scale (1 -1)"><path d="M805 1225Q630 1225 534 1093.5Q438 962 438 727Q438 238 805 238Q959 238 1178 315L1178 55Q998 -20 776 -20Q457 -20 288 173.5Q119 367 119 729Q119 957 202 1128.5Q285 1300 440.5 1391.5Q596 1483 805 1483Q1018 1483 1233 1380L1133 1128Q1051 1167 968 1196Q885 1225 805 1225Z"/></g><g transform="translate(17715.5 7509.333333333333) scale (1 -1)"><path d="M731 0L66 0L66 176L244 258L244 1204L66 1286L66 1462L731 1462L731 1286L553 1204L553 258L731 176Z"/></g><g transform="translate(18512.5 7509.333333333333) scale (1 -1)"><path d="M612 561Q612 298 534.5 71Q457 -156 311 -324L63 -324Q198 -140 272 88.5Q346 317 346 563Q346 807 274 1038Q202 1269 61 1462L311 1462Q458 1287 535 1055.5Q612 824 612 561Z"/></g></g></g><g transform="translate(-2303.0848125 -539.799203125)"><rect x="0" y="0" width="153" height="58" rx="10" ry="10" style="fill:#FFFFFF;stroke:#707070;stroke-width:1px;"/><g transform="translate (5 5) scale(0.005859375)" style="fill:#000000;"><g transform="translate(82.66666666666606 2048) scale (1 -1)"><path d="M739 821L1319 821L1319 63Q1178 17 1053.5 -1.5Q929 -20 799 -20Q468 -20 293.5 174.5Q119 369 119 733Q119 1087 321.5 1285Q524 1483 883 1483Q1108 1483 1317 1393L1214 1145Q1054 1225 881 1225Q680 1225 559 1090Q438 955 438 727Q438 489 535.5 363.5Q633 238 819 238Q916 238 1016 258L1016 563L739 563Z"/></g><g transform="translate(1565.666666666666 2048) scale (1 -1)"><path d="M623 922Q526 922 471 860.5Q416 799 408 686L836 686Q834 799 777 860.5Q720 922 623 922ZM666 -20Q396 -20 244 129Q92 278 92 551Q92 832 232.5 985.5Q373 1139 621 1139Q858 1139 990 1004Q1122 869 1122 631L1122 483L401 483Q406 353 478 280Q550 207 680 207Q781 207 871 228Q961 249 1059 295L1059 59Q979 19 888 -0.5Q797 -20 666 -20Z"/></g><g transform="translate(2775.666666666666 2048) scale (1 -1)"><path d="M631 223Q711 223 823 258L823 31Q709 -20 543 -20Q360 -20 276.5 72.5Q193 165 193 350L193 889L47 889L47 1018L215 1120L303 1356L498 1356L498 1118L811 1118L811 889L498 889L498 350Q498 285 534.5 254Q571 223 631 223Z"/></g><g transform="translate(4196.666666666666 2048) scale (1 -1)"><path d="M1382 0L1073 0L1073 631L494 631L494 0L184 0L184 1462L494 1462L494 889L1073 889L1073 1462L1382 1462Z"/></g><g transform="translate(5763.666666666666 2048) scale (1 -1)"><path d="M748 0L438 0L438 1204L41 1204L41 1462L1145 1462L1145 1204L748 1204Z"/></g><g transform="translate(6949.666666666666 2048) scale (1 -1)"><path d="M748 0L438 0L438 1204L41 1204L41 1462L1145 1462L1145 1204L748 1204Z"/></g><g transform="translate(8135.666666666666 2048) scale (1 -1)"><path d="M494 774L596 774Q739 774 810 830.5Q881 887 881 995Q881 1104 821.5 1156Q762 1208 635 1208L494 1208ZM1194 1006Q1194 770 1046.5 645Q899 520 627 520L494 520L494 0L184 0L184 1462L651 1462Q917 1462 1055.5 1347.5Q1194 1233 1194 1006Z"/></g><g transform="translate(9953.666666666666 2048) scale (1 -1)"><path d="M940 332Q940 160 820.5 70Q701 -20 463 -20Q341 -20 255 -3.5Q169 13 94 45L94 297Q179 257 285.5 230Q392 203 473 203Q639 203 639 299Q639 335 617 357.5Q595 380 541 408.5Q487 437 397 475Q268 529 207.5 575Q147 621 119.5 680.5Q92 740 92 827Q92 976 207.5 1057.5Q323 1139 535 1139Q737 1139 928 1051L836 831Q752 867 679 890Q606 913 530 913Q395 913 395 840Q395 799 438.5 769Q482 739 629 680Q760 627 821 581Q882 535 911 475Q940 415 940 332Z"/></g><g transform="translate(10971.666666666666 2048) scale (1 -1)"><path d="M631 223Q711 223 823 258L823 31Q709 -20 543 -20Q360 -20 276.5 72.5Q193 165 193 350L193 889L47 889L47 1018L215 1120L303 1356L498 1356L498 1118L811 1118L811 889L498 889L498 350Q498 285 534.5 254Q571 223 631 223Z"/></g><g transform="translate(11860.666666666666 2048) scale (1 -1)"><path d="M870 0L811 152L803 152Q726 55 644.5 17.5Q563 -20 432 -20Q271 -20 178.5 72Q86 164 86 334Q86 512 210.5 596.5Q335 681 586 690L780 696L780 745Q780 915 606 915Q472 915 291 834L190 1040Q383 1141 618 1141Q843 1141 963 1043Q1083 945 1083 745L1083 0ZM780 518L662 514Q529 510 464 466Q399 422 399 332Q399 203 547 203Q653 203 716.5 264Q780 325 780 426Z"/></g><g transform="translate(13097.666666666666 2048) scale (1 -1)"><path d="M631 223Q711 223 823 258L823 31Q709 -20 543 -20Q360 -20 276.5 72.5Q193 165 193 350L193 889L47 889L47 1018L215 1120L303 1356L498 1356L498 1118L811 1118L811 889L498 889L498 350Q498 285 534.5 254Q571 223 631 223Z"/></g><g transform="translate(13986.666666666666 2048) scale (1 -1)"><path d="M952 0L911 143L895 143Q846 65 756 22.5Q666 -20 551 -20Q354 -20 254 85.5Q154 191 154 389L154 1118L459 1118L459 465Q459 344 502 283.5Q545 223 639 223Q767 223 824 308.5Q881 394 881 592L881 1118L1186 1118L1186 0Z"/></g><g transform="translate(15332.666666666666 2048) scale (1 -1)"><path d="M940 332Q940 160 820.5 70Q701 -20 463 -20Q341 -20 255 -3.5Q169 13 94 45L94 297Q179 257 285.5 230Q392 203 473 203Q639 203 639 299Q639 335 617 357.5Q595 380 541 408.5Q487 437 397 475Q268 529 207.5 575Q147 621 119.5 680.5Q92 740 92 827Q92 976 207.5 1057.5Q323 1139 535 1139Q737 1139 928 1051L836 831Q752 867 679 890Q606 913 530 913Q395 913 395 840Q395 799 438.5 769Q482 739 629 680Q760 627 821 581Q882 535 911 475Q940 415 940 332Z"/></g><g transform="translate(16882.666666666664 2048) scale (1 -1)"><path d="M614 -20Q92 -20 92 553Q92 838 234 988.5Q376 1139 641 1139Q835 1139 989 1063L899 827Q827 856 765 874.5Q703 893 641 893Q403 893 403 555Q403 227 641 227Q729 227 804 250.5Q879 274 954 324L954 63Q880 16 804.5 -2Q729 -20 614 -20Z"/></g><g transform="translate(17935.666666666664 2048) scale (1 -1)"><path d="M403 561Q403 395 457.5 310Q512 225 635 225Q757 225 810.5 309.5Q864 394 864 561Q864 727 810 810Q756 893 633 893Q511 893 457 810.5Q403 728 403 561ZM1176 561Q1176 288 1032 134Q888 -20 631 -20Q470 -20 347 50.5Q224 121 158 253Q92 385 92 561Q92 835 235 987Q378 1139 637 1139Q798 1139 921 1069Q1044 999 1110 868Q1176 737 1176 561Z"/></g><g transform="translate(19203.666666666664 2048) scale (1 -1)"><path d="M514 -20Q317 -20 204.5 133Q92 286 92 557Q92 832 206.5 985.5Q321 1139 522 1139Q733 1139 844 975L854 975Q831 1100 831 1198L831 1556L1137 1556L1137 0L903 0L844 145L831 145Q727 -20 514 -20ZM621 223Q738 223 792.5 291Q847 359 852 522L852 555Q852 735 796.5 813Q741 891 616 891Q514 891 457.5 804.5Q401 718 401 553Q401 388 458 305.5Q515 223 621 223Z"/></g><g transform="translate(20499.666666666664 2048) scale (1 -1)"><path d="M623 922Q526 922 471 860.5Q416 799 408 686L836 686Q834 799 777 860.5Q720 922 623 922ZM666 -20Q396 -20 244 129Q92 278 92 551Q92 832 232.5 985.5Q373 1139 621 1139Q858 1139 990 1004Q1122 869 1122 631L1122 483L401 483Q406 353 478 280Q550 207 680 207Q781 207 871 228Q961 249 1059 295L1059 59Q979 19 888 -0.5Q797 -20 666 -20Z"/></g><g transform="translate(22241.666666666664 2048) scale (1 -1)"><path d="M403 561Q403 395 457.5 310Q512 225 635 225Q757 225 810.5 309.5Q864 394 864 561Q864 727 810 810Q756 893 633 893Q511 893 457 810.5Q403 728 403 561ZM1176 561Q1176 288 1032 134Q888 -20 631 -20Q470 -20 347 50.5Q224 121 158 253Q92 385 92 561Q92 835 235 987Q378 1139 637 1139Q798 1139 921 1069Q1044 999 1110 868Q1176 737 1176 561Z"/></g><g transform="translate(23509.666666666664 2048) scale (1 -1)"><path d="M778 889L514 889L514 0L209 0L209 889L41 889L41 1036L209 1118L209 1200Q209 1391 303 1479Q397 1567 604 1567Q762 1567 885 1520L807 1296Q715 1325 637 1325Q572 1325 543 1286.5Q514 1248 514 1188L514 1118L778 1118Z"/></g><g transform="translate(947.1666666666661 4778.666666666666) scale (1 -1)"><path d="M940 332Q940 160 820.5 70Q701 -20 463 -20Q341 -20 255 -3.5Q169 13 94 45L94 297Q179 257 285.5 230Q392 203 473 203Q639 203 639 299Q639 335 617 357.5Q595 380 541 408.5Q487 437 397 475Q268 529 207.5 575Q147 621 119.5 680.5Q92 740 92 827Q92 976 207.5 1057.5Q323 1139 535 1139Q737 1139 928 1051L836 831Q752 867 679 890Q606 913 530 913Q395 913 395 840Q395 799 438.5 769Q482 739 629 680Q760 627 821 581Q882 535 911 475Q940 415 940 332Z"/></g><g transform="translate(1965.166666666666 4778.666666666666) scale (1 -1)"><path d="M631 223Q711 223 823 258L823 31Q709 -20 543 -20Q360 -20 276.5 72.5Q193 165 193 350L193 889L47 889L47 1018L215 1120L303 1356L498 1356L498 1118L811 1118L811 889L498 889L498 350Q498 285 534.5 254Q571 223 631 223Z"/></g><g transform="translate(2854.166666666666 4778.666666666666) scale (1 -1)"><path d="M870 0L811 152L803 152Q726 55 644.5 17.5Q563 -20 432 -20Q271 -20 178.5 72Q86 164 86 334Q86 512 210.5 596.5Q335 681 586 690L780 696L780 745Q780 915 606 915Q472 915 291 834L190 1040Q383 1141 618 1141Q843 1141 963 1043Q1083 945 1083 745L1083 0ZM780 518L662 514Q529 510 464 466Q399 422 399 332Q399 203 547 203Q653 203 716.5 264Q780 325 780 426Z"/></g><g transform="translate(4091.166666666666 4778.666666666666) scale (1 -1)"><path d="M623 219Q746 219 799 289.5Q852 360 852 518L852 555Q852 734 796.5 812.5Q741 891 618 891Q403 891 403 553Q403 385 456.5 302Q510 219 623 219ZM1137 -2Q1137 -243 996.5 -367.5Q856 -492 578 -492Q333 -492 160 -426L160 -182Q363 -268 596 -268Q831 -268 831 -14L831 8L840 145L831 145Q724 -20 514 -20Q313 -20 202.5 135Q92 290 92 557Q92 832 206.5 985.5Q321 1139 522 1139Q728 1139 846 975L854 975L879 1118L1137 1118Z"/></g><g transform="translate(5387.166666666666 4778.666666666666) scale (1 -1)"><path d="M147 1407Q147 1556 313 1556Q479 1556 479 1407Q479 1336 437.5 1296.5Q396 1257 313 1257Q147 1257 147 1407ZM465 0L160 0L160 1118L465 1118Z"/></g><g transform="translate(6012.166666666666 4778.666666666666) scale (1 -1)"><path d="M1192 0L887 0L887 653Q887 774 844 834.5Q801 895 707 895Q579 895 522 809.5Q465 724 465 526L465 0L160 0L160 1118L393 1118L434 975L451 975Q502 1056 591.5 1097.5Q681 1139 795 1139Q990 1139 1091 1033.5Q1192 928 1192 729Z"/></g><g transform="translate(7358.166666666666 4778.666666666666) scale (1 -1)"><path d="M623 219Q746 219 799 289.5Q852 360 852 518L852 555Q852 734 796.5 812.5Q741 891 618 891Q403 891 403 553Q403 385 456.5 302Q510 219 623 219ZM1137 -2Q1137 -243 996.5 -367.5Q856 -492 578 -492Q333 -492 160 -426L160 -182Q363 -268 596 -268Q831 -268 831 -14L831 8L840 145L831 145Q724 -20 514 -20Q313 -20 202.5 135Q92 290 92 557Q92 832 206.5 985.5Q321 1139 522 1139Q728 1139 846 975L854 975L879 1118L1137 1118Z"/></g><g transform="translate(8654.166666666666 4778.666666666666) scale (1 -1)"><path d="M117 143Q117 227 162 270Q207 313 293 313Q376 313 421.5 269Q467 225 467 143Q467 64 421 18.5Q375 -27 293 -27Q209 -27 163 17.5Q117 62 117 143Z"/></g><g transform="translate(9238.166666666666 4778.666666666666) scale (1 -1)"><path d="M774 -20Q577 -20 465 123L449 123Q465 -17 465 -39L465 -492L160 -492L160 1118L408 1118L451 973L465 973Q572 1139 782 1139Q980 1139 1092 986Q1204 833 1204 561Q1204 382 1151.5 250Q1099 118 1002 49Q905 -20 774 -20ZM684 895Q571 895 519 825.5Q467 756 465 596L465 563Q465 383 518.5 305Q572 227 688 227Q893 227 893 565Q893 730 842.5 812.5Q792 895 684 895Z"/></g><g transform="translate(10534.166666666666 4778.666666666666) scale (1 -1)"><path d="M870 0L811 152L803 152Q726 55 644.5 17.5Q563 -20 432 -20Q271 -20 178.5 72Q86 164 86 334Q86 512 210.5 596.5Q335 681 586 690L780 696L780 745Q780 915 606 915Q472 915 291 834L190 1040Q383 1141 618 1141Q843 1141 963 1043Q1083 945 1083 745L1083 0ZM780 518L662 514Q529 510 464 466Q399 422 399 332Q399 203 547 203Q653 203 716.5 264Q780 325 780 426Z"/></g><g transform="translate(11771.166666666666 4778.666666666666) scale (1 -1)"><path d="M1079 0L993 391L879 885L870 885L666 0L338 0L20 1118L324 1118L453 623Q475 535 514 256L522 256Q526 332 557 497L573 582L711 1118L1047 1118L1178 582Q1190 527 1207.5 420.5Q1225 314 1227 256L1235 256Q1246 345 1266 458.5Q1286 572 1300 623L1434 1118L1733 1118L1411 0Z"/></g><g transform="translate(13524.166666666666 4778.666666666666) scale (1 -1)"><path d="M623 922Q526 922 471 860.5Q416 799 408 686L836 686Q834 799 777 860.5Q720 922 623 922ZM666 -20Q396 -20 244 129Q92 278 92 551Q92 832 232.5 985.5Q373 1139 621 1139Q858 1139 990 1004Q1122 869 1122 631L1122 483L401 483Q406 353 478 280Q550 207 680 207Q781 207 871 228Q961 249 1059 295L1059 59Q979 19 888 -0.5Q797 -20 666 -20Z"/></g><g transform="translate(14734.166666666666 4778.666666666666) scale (1 -1)"><path d="M465 0L160 0L160 1556L465 1556Z"/></g><g transform="translate(15359.166666666666 4778.666666666666) scale (1 -1)"><path d="M782 1139Q980 1139 1092 984.5Q1204 830 1204 561Q1204 284 1088.5 132Q973 -20 774 -20Q577 -20 465 123L444 123L393 0L160 0L160 1556L465 1556L465 1194Q465 1125 453 973L465 973Q572 1139 782 1139ZM684 895Q571 895 519 825.5Q467 756 465 596L465 563Q465 383 518.5 305Q572 227 688 227Q782 227 837.5 313.5Q893 400 893 565Q893 730 837 812.5Q781 895 684 895Z"/></g><g transform="translate(16655.166666666664 4778.666666666666) scale (1 -1)"><path d="M870 0L811 152L803 152Q726 55 644.5 17.5Q563 -20 432 -20Q271 -20 178.5 72Q86 164 86 334Q86 512 210.5 596.5Q335 681 586 690L780 696L780 745Q780 915 606 915Q472 915 291 834L190 1040Q383 1141 618 1141Q843 1141 963 1043Q1083 945 1083 745L1083 0ZM780 518L662 514Q529 510 464 466Q399 422 399 332Q399 203 547 203Q653 203 716.5 264Q780 325 780 426Z"/></g><g transform="translate(17892.166666666664 4778.666666666666) scale (1 -1)"><path d="M1192 0L887 0L887 653Q887 774 844 834.5Q801 895 707 895Q579 895 522 809.5Q465 724 465 526L465 0L160 0L160 1118L393 1118L434 975L451 975Q502 1056 591.5 1097.5Q681 1139 795 1139Q990 1139 1091 1033.5Q1192 928 1192 729Z"/></g><g transform="translate(19238.166666666664 4778.666666666666) scale (1 -1)"><path d="M870 0L811 152L803 152Q726 55 644.5 17.5Q563 -20 432 -20Q271 -20 178.5 72Q86 164 86 334Q86 512 210.5 596.5Q335 681 586 690L780 696L780 745Q780 915 606 915Q472 915 291 834L190 1040Q383 1141 618 1141Q843 1141 963 1043Q1083 945 1083 745L1083 0ZM780 518L662 514Q529 510 464 466Q399 422 399 332Q399 203 547 203Q653 203 716.5 264Q780 325 780 426Z"/></g><g transform="translate(20475.166666666664 4778.666666666666) scale (1 -1)"><path d="M117 143Q117 227 162 270Q207 313 293 313Q376 313 421.5 269Q467 225 467 143Q467 64 421 18.5Q375 -27 293 -27Q209 -27 163 17.5Q117 62 117 143Z"/></g><g transform="translate(21059.166666666664 4778.666666666666) scale (1 -1)"><path d="M614 -20Q92 -20 92 553Q92 838 234 988.5Q376 1139 641 1139Q835 1139 989 1063L899 827Q827 856 765 874.5Q703 893 641 893Q403 893 403 555Q403 227 641 227Q729 227 804 250.5Q879 274 954 324L954 63Q880 16 804.5 -2Q729 -20 614 -20Z"/></g><g transform="translate(22112.166666666664 4778.666666666666) scale (1 -1)"><path d="M1192 0L887 0L887 653Q887 895 707 895Q579 895 522 808Q465 721 465 526L465 0L160 0L160 1556L465 1556L465 1239Q465 1202 458 1065L451 975L467 975Q569 1139 791 1139Q988 1139 1090 1033Q1192 927 1192 729Z"/></g><g transform="translate(7146.166666666666 7509.333333333333) scale (1 -1)"><path d="M82 561Q82 826 159.5 1057Q237 1288 383 1462L633 1462Q492 1269 420 1038Q348 807 348 563Q348 318 421.5 89.5Q495 -139 631 -324L383 -324Q236 -154 159 73Q82 300 82 561Z"/></g><g transform="translate(7840.166666666666 7509.333333333333) scale (1 -1)"><path d="M748 0L438 0L438 1204L41 1204L41 1462L1145 1462L1145 1204L748 1204Z"/></g><g transform="translate(9026.166666666666 7509.333333333333) scale (1 -1)"><path d="M784 1139Q846 1139 887 1130L864 844Q827 854 774 854Q628 854 546.5 779Q465 704 465 569L465 0L160 0L160 1118L391 1118L436 930L451 930Q503 1024 591.5 1081.5Q680 1139 784 1139Z"/></g><g transform="translate(9956.166666666666 7509.333333333333) scale (1 -1)"><path d="M870 0L811 152L803 152Q726 55 644.5 17.5Q563 -20 432 -20Q271 -20 178.5 72Q86 164 86 334Q86 512 210.5 596.5Q335 681 586 690L780 696L780 745Q780 915 606 915Q472 915 291 834L190 1040Q383 1141 618 1141Q843 1141 963 1043Q1083 945 1083 745L1083 0ZM780 518L662 514Q529 510 464 466Q399 422 399 332Q399 203 547 203Q653 203 716.5 264Q780 325 780 426Z"/></g><g transform="translate(11193.166666666666 7509.333333333333) scale (1 -1)"><path d="M426 0L0 1118L319 1118L535 481Q568 377 578 252L586 252Q592 365 631 481L846 1118L1165 1118L739 0Z"/></g><g transform="translate(12358.166666666666 7509.333333333333) scale (1 -1)"><path d="M147 1407Q147 1556 313 1556Q479 1556 479 1407Q479 1336 437.5 1296.5Q396 1257 313 1257Q147 1257 147 1407ZM465 0L160 0L160 1118L465 1118Z"/></g><g transform="translate(12983.166666666666 7509.333333333333) scale (1 -1)"><path d="M940 332Q940 160 820.5 70Q701 -20 463 -20Q341 -20 255 -3.5Q169 13 94 45L94 297Q179 257 285.5 230Q392 203 473 203Q639 203 639 299Q639 335 617 357.5Q595 380 541 408.5Q487 437 397 475Q268 529 207.5 575Q147 621 119.5 680.5Q92 740 92 827Q92 976 207.5 1057.5Q323 1139 535 1139Q737 1139 928 1051L836 831Q752 867 679 890Q606 913 530 913Q395 913 395 840Q395 799 438.5 769Q482 739 629 680Q760 627 821 581Q882 535 911 475Q940 415 940 332Z"/></g><g transform="translate(14533.166666666666 7509.333333333333) scale (1 -1)"><path d="M805 1225Q630 1225 534 1093.5Q438 962 438 727Q438 238 805 238Q959 238 1178 315L1178 55Q998 -20 776 -20Q457 -20 288 173.5Q119 367 119 729Q119 957 202 1128.5Q285 1300 440.5 1391.5Q596 1483 805 1483Q1018 1483 1233 1380L1133 1128Q1051 1167 968 1196Q885 1225 805 1225Z"/></g><g transform="translate(15838.166666666666 7509.333333333333) scale (1 -1)"><path d="M731 0L66 0L66 176L244 258L244 1204L66 1286L66 1462L731 1462L731 1286L553 1204L553 258L731 176Z"/></g><g transform="translate(16635.166666666664 7509.333333333333) scale (1 -1)"><path d="M612 561Q612 298 534.5 71Q457 -156 311 -324L63 -324Q198 -140 272 88.5Q346 317 346 563Q346 807 274 1038Q202 1269 61 1462L311 1462Q458 1287 535 1055.5Q612 824 612 561Z"/></g></g></g><g transform="translate(-2431.0848125 -531.799203125)"><rect x="0" y="0" width="108" height="42" rx="10" ry="10" style="fill:#FFFFFF;stroke:#707070;stroke-width:1px;"/><g transform="translate (5 5) scale(0.005859375)" style="fill:#000000;"><g transform="translate(22.66666666666606 2048) scale (1 -1)"><path d="M748 0L438 0L438 1204L41 1204L41 1462L1145 1462L1145 1204L748 1204Z"/></g><g transform="translate(1208.666666666666 2048) scale (1 -1)"><path d="M784 1139Q846 1139 887 1130L864 844Q827 854 774 854Q628 854 546.5 779Q465 704 465 569L465 0L160 0L160 1118L391 1118L436 930L451 930Q503 1024 591.5 1081.5Q680 1139 784 1139Z"/></g><g transform="translate(2138.666666666666 2048) scale (1 -1)"><path d="M147 1407Q147 1556 313 1556Q479 1556 479 1407Q479 1336 437.5 1296.5Q396 1257 313 1257Q147 1257 147 1407ZM465 0L160 0L160 1118L465 1118Z"/></g><g transform="translate(2763.666666666666 2048) scale (1 -1)"><path d="M623 219Q746 219 799 289.5Q852 360 852 518L852 555Q852 734 796.5 812.5Q741 891 618 891Q403 891 403 553Q403 385 456.5 302Q510 219 623 219ZM1137 -2Q1137 -243 996.5 -367.5Q856 -492 578 -492Q333 -492 160 -426L160 -182Q363 -268 596 -268Q831 -268 831 -14L831 8L840 145L831 145Q724 -20 514 -20Q313 -20 202.5 135Q92 290 92 557Q92 832 206.5 985.5Q321 1139 522 1139Q728 1139 846 975L854 975L879 1118L1137 1118Z"/></g><g transform="translate(4059.666666666666 2048) scale (1 -1)"><path d="M623 219Q746 219 799 289.5Q852 360 852 518L852 555Q852 734 796.5 812.5Q741 891 618 891Q403 891 403 553Q403 385 456.5 302Q510 219 623 219ZM1137 -2Q1137 -243 996.5 -367.5Q856 -492 578 -492Q333 -492 160 -426L160 -182Q363 -268 596 -268Q831 -268 831 -14L831 8L840 145L831 145Q724 -20 514 -20Q313 -20 202.5 135Q92 290 92 557Q92 832 206.5 985.5Q321 1139 522 1139Q728 1139 846 975L854 975L879 1118L1137 1118Z"/></g><g transform="translate(5355.666666666666 2048) scale (1 -1)"><path d="M623 922Q526 922 471 860.5Q416 799 408 686L836 686Q834 799 777 860.5Q720 922 623 922ZM666 -20Q396 -20 244 129Q92 278 92 551Q92 832 232.5 985.5Q373 1139 621 1139Q858 1139 990 1004Q1122 869 1122 631L1122 483L401 483Q406 353 478 280Q550 207 680 207Q781 207 871 228Q961 249 1059 295L1059 59Q979 19 888 -0.5Q797 -20 666 -20Z"/></g><g transform="translate(6565.666666666666 2048) scale (1 -1)"><path d="M784 1139Q846 1139 887 1130L864 844Q827 854 774 854Q628 854 546.5 779Q465 704 465 569L465 0L160 0L160 1118L391 1118L436 930L451 930Q503 1024 591.5 1081.5Q680 1139 784 1139Z"/></g><g transform="translate(8027.666666666666 2048) scale (1 -1)"><path d="M748 0L438 0L438 1204L41 1204L41 1462L1145 1462L1145 1204L748 1204Z"/></g><g transform="translate(9213.666666666666 2048) scale (1 -1)"><path d="M784 1139Q846 1139 887 1130L864 844Q827 854 774 854Q628 854 546.5 779Q465 704 465 569L465 0L160 0L160 1118L391 1118L436 930L451 930Q503 1024 591.5 1081.5Q680 1139 784 1139Z"/></g><g transform="translate(10143.666666666666 2048) scale (1 -1)"><path d="M870 0L811 152L803 152Q726 55 644.5 17.5Q563 -20 432 -20Q271 -20 178.5 72Q86 164 86 334Q86 512 210.5 596.5Q335 681 586 690L780 696L780 745Q780 915 606 915Q472 915 291 834L190 1040Q383 1141 618 1141Q843 1141 963 1043Q1083 945 1083 745L1083 0ZM780 518L662 514Q529 510 464 466Q399 422 399 332Q399 203 547 203Q653 203 716.5 264Q780 325 780 426Z"/></g><g transform="translate(11380.666666666666 2048) scale (1 -1)"><path d="M426 0L0 1118L319 1118L535 481Q568 377 578 252L586 252Q592 365 631 481L846 1118L1165 1118L739 0Z"/></g><g transform="translate(12545.666666666666 2048) scale (1 -1)"><path d="M147 1407Q147 1556 313 1556Q479 1556 479 1407Q479 1336 437.5 1296.5Q396 1257 313 1257Q147 1257 147 1407ZM465 0L160 0L160 1118L465 1118Z"/></g><g transform="translate(13170.666666666666 2048) scale (1 -1)"><path d="M940 332Q940 160 820.5 70Q701 -20 463 -20Q341 -20 255 -3.5Q169 13 94 45L94 297Q179 257 285.5 230Q392 203 473 203Q639 203 639 299Q639 335 617 357.5Q595 380 541 408.5Q487 437 397 475Q268 529 207.5 575Q147 621 119.5 680.5Q92 740 92 827Q92 976 207.5 1057.5Q323 1139 535 1139Q737 1139 928 1051L836 831Q752 867 679 890Q606 913 530 913Q395 913 395 840Q395 799 438.5 769Q482 739 629 680Q760 627 821 581Q882 535 911 475Q940 415 940 332Z"/></g><g transform="translate(14720.666666666666 2048) scale (1 -1)"><path d="M805 1225Q630 1225 534 1093.5Q438 962 438 727Q438 238 805 238Q959 238 1178 315L1178 55Q998 -20 776 -20Q457 -20 288 173.5Q119 367 119 729Q119 957 202 1128.5Q285 1300 440.5 1391.5Q596 1483 805 1483Q1018 1483 1233 1380L1133 1128Q1051 1167 968 1196Q885 1225 805 1225Z"/></g><g transform="translate(16025.666666666666 2048) scale (1 -1)"><path d="M731 0L66 0L66 176L244 258L244 1204L66 1286L66 1462L731 1462L731 1286L553 1204L553 258L731 176Z"/></g><g transform="translate(4065.666666666666 4778.666666666666) scale (1 -1)"><path d="M82 561Q82 826 159.5 1057Q237 1288 383 1462L633 1462Q492 1269 420 1038Q348 807 348 563Q348 318 421.5 89.5Q495 -139 631 -324L383 -324Q236 -154 159 73Q82 300 82 561Z"/></g><g transform="translate(4759.666666666666 4778.666666666666) scale (1 -1)"><path d="M739 821L1319 821L1319 63Q1178 17 1053.5 -1.5Q929 -20 799 -20Q468 -20 293.5 174.5Q119 369 119 733Q119 1087 321.5 1285Q524 1483 883 1483Q1108 1483 1317 1393L1214 1145Q1054 1225 881 1225Q680 1225 559 1090Q438 955 438 727Q438 489 535.5 363.5Q633 238 819 238Q916 238 1016 258L1016 563L739 563Z"/></g><g transform="translate(6242.666666666666 4778.666666666666) scale (1 -1)"><path d="M147 1407Q147 1556 313 1556Q479 1556 479 1407Q479 1336 437.5 1296.5Q396 1257 313 1257Q147 1257 147 1407ZM465 0L160 0L160 1118L465 1118Z"/></g><g transform="translate(6867.666666666666 4778.666666666666) scale (1 -1)"><path d="M631 223Q711 223 823 258L823 31Q709 -20 543 -20Q360 -20 276.5 72.5Q193 165 193 350L193 889L47 889L47 1018L215 1120L303 1356L498 1356L498 1118L811 1118L811 889L498 889L498 350Q498 285 534.5 254Q571 223 631 223Z"/></g><g transform="translate(7756.666666666666 4778.666666666666) scale (1 -1)"><path d="M1382 0L1073 0L1073 631L494 631L494 0L184 0L184 1462L494 1462L494 889L1073 889L1073 1462L1382 1462Z"/></g><g transform="translate(9323.666666666666 4778.666666666666) scale (1 -1)"><path d="M952 0L911 143L895 143Q846 65 756 22.5Q666 -20 551 -20Q354 -20 254 85.5Q154 191 154 389L154 1118L459 1118L459 465Q459 344 502 283.5Q545 223 639 223Q767 223 824 308.5Q881 394 881 592L881 1118L1186 1118L1186 0Z"/></g><g transform="translate(10669.666666666666 4778.666666666666) scale (1 -1)"><path d="M782 1139Q980 1139 1092 984.5Q1204 830 1204 561Q1204 284 1088.5 132Q973 -20 774 -20Q577 -20 465 123L444 123L393 0L160 0L160 1556L465 1556L465 1194Q465 1125 453 973L465 973Q572 1139 782 1139ZM684 895Q571 895 519 825.5Q467 756 465 596L465 563Q465 383 518.5 305Q572 227 688 227Q782 227 837.5 313.5Q893 400 893 565Q893 730 837 812.5Q781 895 684 895Z"/></g><g transform="translate(11965.666666666666 4778.666666666666) scale (1 -1)"><path d="M612 561Q612 298 534.5 71Q457 -156 311 -324L63 -324Q198 -140 272 88.5Q346 317 346 563Q346 807 274 1038Q202 1269 61 1462L311 1462Q458 1287 535 1055.5Q612 824 612 561Z"/></g></g></g><g transform="translate(-2628.0848125 -539.799203125)"><rect x="0" y="0" width="177" height="58" rx="10" ry="10" style="fill:#FFFFFF;stroke:#707070;stroke-width:1px;"/><g transform="translate (6 5) scale(0.005859375)" style="fill:#000000;"><g transform="translate(3084.833333333334 2048) scale (1 -1)"><path d="M494 774L596 774Q739 774 810 830.5Q881 887 881 995Q881 1104 821.5 1156Q762 1208 635 1208L494 1208ZM1194 1006Q1194 770 1046.5 645Q899 520 627 520L494 520L494 0L184 0L184 1462L651 1462Q917 1462 1055.5 1347.5Q1194 1233 1194 1006Z"/></g><g transform="translate(4370.833333333334 2048) scale (1 -1)"><path d="M952 0L911 143L895 143Q846 65 756 22.5Q666 -20 551 -20Q354 -20 254 85.5Q154 191 154 389L154 1118L459 1118L459 465Q459 344 502 283.5Q545 223 639 223Q767 223 824 308.5Q881 394 881 592L881 1118L1186 1118L1186 0Z"/></g><g transform="translate(5716.833333333334 2048) scale (1 -1)"><path d="M465 0L160 0L160 1556L465 1556Z"/></g><g transform="translate(6341.833333333334 2048) scale (1 -1)"><path d="M465 0L160 0L160 1556L465 1556Z"/></g><g transform="translate(7498.833333333334 2048) scale (1 -1)"><path d="M784 1139Q846 1139 887 1130L864 844Q827 854 774 854Q628 854 546.5 779Q465 704 465 569L465 0L160 0L160 1118L391 1118L436 930L451 930Q503 1024 591.5 1081.5Q680 1139 784 1139Z"/></g><g transform="translate(8428.833333333334 2048) scale (1 -1)"><path d="M623 922Q526 922 471 860.5Q416 799 408 686L836 686Q834 799 777 860.5Q720 922 623 922ZM666 -20Q396 -20 244 129Q92 278 92 551Q92 832 232.5 985.5Q373 1139 621 1139Q858 1139 990 1004Q1122 869 1122 631L1122 483L401 483Q406 353 478 280Q550 207 680 207Q781 207 871 228Q961 249 1059 295L1059 59Q979 19 888 -0.5Q797 -20 666 -20Z"/></g><g transform="translate(9638.833333333334 2048) scale (1 -1)"><path d="M623 219Q739 219 793 285.5Q847 352 852 518L852 555Q852 735 796.5 813Q741 891 618 891Q403 891 403 553Q403 385 456.5 302Q510 219 623 219ZM514 -20Q316 -20 204 132.5Q92 285 92 557Q92 831 206.5 985Q321 1139 520 1139Q626 1139 705 1099Q784 1059 844 975L852 975L879 1118L1137 1118L1137 -492L831 -492L831 -23Q831 38 844 145L831 145Q782 64 701 22Q620 -20 514 -20Z"/></g><g transform="translate(10934.833333333334 2048) scale (1 -1)"><path d="M952 0L911 143L895 143Q846 65 756 22.5Q666 -20 551 -20Q354 -20 254 85.5Q154 191 154 389L154 1118L459 1118L459 465Q459 344 502 283.5Q545 223 639 223Q767 223 824 308.5Q881 394 881 592L881 1118L1186 1118L1186 0Z"/></g><g transform="translate(12280.833333333334 2048) scale (1 -1)"><path d="M623 922Q526 922 471 860.5Q416 799 408 686L836 686Q834 799 777 860.5Q720 922 623 922ZM666 -20Q396 -20 244 129Q92 278 92 551Q92 832 232.5 985.5Q373 1139 621 1139Q858 1139 990 1004Q1122 869 1122 631L1122 483L401 483Q406 353 478 280Q550 207 680 207Q781 207 871 228Q961 249 1059 295L1059 59Q979 19 888 -0.5Q797 -20 666 -20Z"/></g><g transform="translate(13490.833333333334 2048) scale (1 -1)"><path d="M940 332Q940 160 820.5 70Q701 -20 463 -20Q341 -20 255 -3.5Q169 13 94 45L94 297Q179 257 285.5 230Q392 203 473 203Q639 203 639 299Q639 335 617 357.5Q595 380 541 408.5Q487 437 397 475Q268 529 207.5 575Q147 621 119.5 680.5Q92 740 92 827Q92 976 207.5 1057.5Q323 1139 535 1139Q737 1139 928 1051L836 831Q752 867 679 890Q606 913 530 913Q395 913 395 840Q395 799 438.5 769Q482 739 629 680Q760 627 821 581Q882 535 911 475Q940 415 940 332Z"/></g><g transform="translate(14508.833333333334 2048) scale (1 -1)"><path d="M631 223Q711 223 823 258L823 31Q709 -20 543 -20Q360 -20 276.5 72.5Q193 165 193 350L193 889L47 889L47 1018L215 1120L303 1356L498 1356L498 1118L811 1118L811 889L498 889L498 350Q498 285 534.5 254Q571 223 631 223Z"/></g><g transform="translate(15929.833333333334 2048) scale (1 -1)"><path d="M631 223Q711 223 823 258L823 31Q709 -20 543 -20Q360 -20 276.5 72.5Q193 165 193 350L193 889L47 889L47 1018L215 1120L303 1356L498 1356L498 1118L811 1118L811 889L498 889L498 350Q498 285 534.5 254Q571 223 631 223Z"/></g><g transform="translate(16818.833333333336 2048) scale (1 -1)"><path d="M403 561Q403 395 457.5 310Q512 225 635 225Q757 225 810.5 309.5Q864 394 864 561Q864 727 810 810Q756 893 633 893Q511 893 457 810.5Q403 728 403 561ZM1176 561Q1176 288 1032 134Q888 -20 631 -20Q470 -20 347 50.5Q224 121 158 253Q92 385 92 561Q92 835 235 987Q378 1139 637 1139Q798 1139 921 1069Q1044 999 1110 868Q1176 737 1176 561Z"/></g><g transform="translate(18618.833333333336 2048) scale (1 -1)"><path d="M1161 0L856 0L856 653Q856 774 815.5 834.5Q775 895 688 895Q571 895 518 809Q465 723 465 526L465 0L160 0L160 1118L393 1118L434 975L451 975Q496 1052 581 1095.5Q666 1139 776 1139Q1027 1139 1116 975L1143 975Q1188 1053 1275.5 1096Q1363 1139 1473 1139Q1663 1139 1760.5 1041.5Q1858 944 1858 729L1858 0L1552 0L1552 653Q1552 774 1511.5 834.5Q1471 895 1384 895Q1272 895 1216.5 815Q1161 735 1161 561Z"/></g><g transform="translate(20629.833333333336 2048) scale (1 -1)"><path d="M623 922Q526 922 471 860.5Q416 799 408 686L836 686Q834 799 777 860.5Q720 922 623 922ZM666 -20Q396 -20 244 129Q92 278 92 551Q92 832 232.5 985.5Q373 1139 621 1139Q858 1139 990 1004Q1122 869 1122 631L1122 483L401 483Q406 353 478 280Q550 207 680 207Q781 207 871 228Q961 249 1059 295L1059 59Q979 19 888 -0.5Q797 -20 666 -20Z"/></g><g transform="translate(21839.833333333336 2048) scale (1 -1)"><path d="M784 1139Q846 1139 887 1130L864 844Q827 854 774 854Q628 854 546.5 779Q465 704 465 569L465 0L160 0L160 1118L391 1118L436 930L451 930Q503 1024 591.5 1081.5Q680 1139 784 1139Z"/></g><g transform="translate(22769.833333333336 2048) scale (1 -1)"><path d="M623 219Q746 219 799 289.5Q852 360 852 518L852 555Q852 734 796.5 812.5Q741 891 618 891Q403 891 403 553Q403 385 456.5 302Q510 219 623 219ZM1137 -2Q1137 -243 996.5 -367.5Q856 -492 578 -492Q333 -492 160 -426L160 -182Q363 -268 596 -268Q831 -268 831 -14L831 8L840 145L831 145Q724 -20 514 -20Q313 -20 202.5 135Q92 290 92 557Q92 832 206.5 985.5Q321 1139 522 1139Q728 1139 846 975L854 975L879 1118L1137 1118Z"/></g><g transform="translate(24065.833333333336 2048) scale (1 -1)"><path d="M623 922Q526 922 471 860.5Q416 799 408 686L836 686Q834 799 777 860.5Q720 922 623 922ZM666 -20Q396 -20 244 129Q92 278 92 551Q92 832 232.5 985.5Q373 1139 621 1139Q858 1139 990 1004Q1122 869 1122 631L1122 483L401 483Q406 353 478 280Q550 207 680 207Q781 207 871 228Q961 249 1059 295L1059 59Q979 19 888 -0.5Q797 -20 666 -20Z"/></g><g transform="translate(42.33333333333394 4778.666666666666) scale (1 -1)"><path d="M1047 406Q1047 208 904.5 94Q762 -20 508 -20Q274 -20 94 68L94 356Q242 290 344.5 263Q447 236 532 236Q634 236 688.5 275Q743 314 743 391Q743 434 719 467.5Q695 501 648.5 532Q602 563 459 631Q325 694 258 752Q191 810 151 887Q111 964 111 1067Q111 1261 242.5 1372Q374 1483 606 1483Q720 1483 823.5 1456Q927 1429 1040 1380L940 1139Q823 1187 746.5 1206Q670 1225 596 1225Q508 1225 461 1184Q414 1143 414 1077Q414 1036 433 1005.5Q452 975 493.5 946.5Q535 918 690 844Q895 746 971 647.5Q1047 549 1047 406Z"/></g><g transform="translate(1170.333333333334 4778.666666666666) scale (1 -1)"><path d="M748 0L438 0L438 1204L41 1204L41 1462L1145 1462L1145 1204L748 1204Z"/></g><g transform="translate(2356.333333333334 4778.666666666666) scale (1 -1)"><path d="M1079 0L973 348L440 348L334 0L0 0L516 1468L895 1468L1413 0ZM899 608Q752 1081 733.5 1143Q715 1205 707 1241Q674 1113 518 608Z"/></g><g transform="translate(3769.333333333334 4778.666666666666) scale (1 -1)"><path d="M739 821L1319 821L1319 63Q1178 17 1053.5 -1.5Q929 -20 799 -20Q468 -20 293.5 174.5Q119 369 119 733Q119 1087 321.5 1285Q524 1483 883 1483Q1108 1483 1317 1393L1214 1145Q1054 1225 881 1225Q680 1225 559 1090Q438 955 438 727Q438 489 535.5 363.5Q633 238 819 238Q916 238 1016 258L1016 563L739 563Z"/></g><g transform="translate(5252.333333333334 4778.666666666666) scale (1 -1)"><path d="M731 0L66 0L66 176L244 258L244 1204L66 1286L66 1462L731 1462L731 1286L553 1204L553 258L731 176Z"/></g><g transform="translate(6049.333333333334 4778.666666666666) scale (1 -1)"><path d="M1481 0L1087 0L451 1106L442 1106Q461 813 461 688L461 0L184 0L184 1462L575 1462L1210 367L1217 367Q1202 652 1202 770L1202 1462L1481 1462Z"/></g><g transform="translate(7714.333333333334 4778.666666666666) scale (1 -1)"><path d="M739 821L1319 821L1319 63Q1178 17 1053.5 -1.5Q929 -20 799 -20Q468 -20 293.5 174.5Q119 369 119 733Q119 1087 321.5 1285Q524 1483 883 1483Q1108 1483 1317 1393L1214 1145Q1054 1225 881 1225Q680 1225 559 1090Q438 955 438 727Q438 489 535.5 363.5Q633 238 819 238Q916 238 1016 258L1016 563L739 563Z"/></g><g transform="translate(9729.333333333334 4778.666666666666) scale (1 -1)"><path d="M1079 0L993 391L879 885L870 885L666 0L338 0L20 1118L324 1118L453 623Q475 535 514 256L522 256Q526 332 557 497L573 582L711 1118L1047 1118L1178 582Q1190 527 1207.5 420.5Q1225 314 1227 256L1235 256Q1246 345 1266 458.5Q1286 572 1300 623L1434 1118L1733 1118L1411 0Z"/></g><g transform="translate(11482.333333333334 4778.666666666666) scale (1 -1)"><path d="M147 1407Q147 1556 313 1556Q479 1556 479 1407Q479 1336 437.5 1296.5Q396 1257 313 1257Q147 1257 147 1407ZM465 0L160 0L160 1118L465 1118Z"/></g><g transform="translate(12107.333333333334 4778.666666666666) scale (1 -1)"><path d="M631 223Q711 223 823 258L823 31Q709 -20 543 -20Q360 -20 276.5 72.5Q193 165 193 350L193 889L47 889L47 1018L215 1120L303 1356L498 1356L498 1118L811 1118L811 889L498 889L498 350Q498 285 534.5 254Q571 223 631 223Z"/></g><g transform="translate(12996.333333333334 4778.666666666666) scale (1 -1)"><path d="M1192 0L887 0L887 653Q887 895 707 895Q579 895 522 808Q465 721 465 526L465 0L160 0L160 1556L465 1556L465 1239Q465 1202 458 1065L451 975L467 975Q569 1139 791 1139Q988 1139 1090 1033Q1192 927 1192 729Z"/></g><g transform="translate(14874.333333333334 4778.666666666666) scale (1 -1)"><path d="M494 774L596 774Q739 774 810 830.5Q881 887 881 995Q881 1104 821.5 1156Q762 1208 635 1208L494 1208ZM1194 1006Q1194 770 1046.5 645Q899 520 627 520L494 520L494 0L184 0L184 1462L651 1462Q917 1462 1055.5 1347.5Q1194 1233 1194 1006Z"/></g><g transform="translate(16160.333333333334 4778.666666666666) scale (1 -1)"><path d="M494 813L594 813Q741 813 811 862Q881 911 881 1016Q881 1120 809.5 1164Q738 1208 588 1208L494 1208ZM494 561L494 0L184 0L184 1462L610 1462Q908 1462 1051 1353.5Q1194 1245 1194 1024Q1194 895 1123 794.5Q1052 694 922 637L1352 0L1008 0L659 561Z"/></g><g transform="translate(17512.333333333336 4778.666666666666) scale (1 -1)"><path d="M1511 733Q1511 370 1331 175Q1151 -20 815 -20Q479 -20 299 175Q119 370 119 735Q119 1100 299.5 1292.5Q480 1485 817 1485Q1154 1485 1332.5 1291Q1511 1097 1511 733ZM444 733Q444 488 537 364Q630 240 815 240Q1186 240 1186 733Q1186 1227 817 1227Q632 1227 538 1102.5Q444 978 444 733Z"/></g><g transform="translate(19142.333333333336 4778.666666666666) scale (1 -1)"><path d="M1397 745Q1397 384 1191.5 192Q986 0 598 0L184 0L184 1462L643 1462Q1001 1462 1199 1273Q1397 1084 1397 745ZM1075 737Q1075 1208 659 1208L494 1208L494 256L627 256Q1075 256 1075 737Z"/></g><g transform="translate(21190.333333333336 4778.666666666666) scale (1 -1)"><path d="M782 1139Q980 1139 1092 984.5Q1204 830 1204 561Q1204 284 1088.5 132Q973 -20 774 -20Q577 -20 465 123L444 123L393 0L160 0L160 1556L465 1556L465 1194Q465 1125 453 973L465 973Q572 1139 782 1139ZM684 895Q571 895 519 825.5Q467 756 465 596L465 563Q465 383 518.5 305Q572 227 688 227Q782 227 837.5 313.5Q893 400 893 565Q893 730 837 812.5Q781 895 684 895Z"/></g><g transform="translate(22486.333333333336 4778.666666666666) scale (1 -1)"><path d="M784 1139Q846 1139 887 1130L864 844Q827 854 774 854Q628 854 546.5 779Q465 704 465 569L465 0L160 0L160 1118L391 1118L436 930L451 930Q503 1024 591.5 1081.5Q680 1139 784 1139Z"/></g><g transform="translate(23416.333333333336 4778.666666666666) scale (1 -1)"><path d="M870 0L811 152L803 152Q726 55 644.5 17.5Q563 -20 432 -20Q271 -20 178.5 72Q86 164 86 334Q86 512 210.5 596.5Q335 681 586 690L780 696L780 745Q780 915 606 915Q472 915 291 834L190 1040Q383 1141 618 1141Q843 1141 963 1043Q1083 945 1083 745L1083 0ZM780 518L662 514Q529 510 464 466Q399 422 399 332Q399 203 547 203Q653 203 716.5 264Q780 325 780 426Z"/></g><g transform="translate(24653.333333333336 4778.666666666666) scale (1 -1)"><path d="M1192 0L887 0L887 653Q887 774 844 834.5Q801 895 707 895Q579 895 522 809.5Q465 724 465 526L465 0L160 0L160 1118L393 1118L434 975L451 975Q502 1056 591.5 1097.5Q681 1139 795 1139Q990 1139 1091 1033.5Q1192 928 1192 729Z"/></g><g transform="translate(25999.333333333336 4778.666666666666) scale (1 -1)"><path d="M614 -20Q92 -20 92 553Q92 838 234 988.5Q376 1139 641 1139Q835 1139 989 1063L899 827Q827 856 765 874.5Q703 893 641 893Q403 893 403 555Q403 227 641 227Q729 227 804 250.5Q879 274 954 324L954 63Q880 16 804.5 -2Q729 -20 614 -20Z"/></g><g transform="translate(27052.333333333336 4778.666666666666) scale (1 -1)"><path d="M1192 0L887 0L887 653Q887 895 707 895Q579 895 522 808Q465 721 465 526L465 0L160 0L160 1556L465 1556L465 1239Q465 1202 458 1065L451 975L467 975Q569 1139 791 1139Q988 1139 1090 1033Q1192 927 1192 729Z"/></g><g transform="translate(9868.333333333334 7509.333333333333) scale (1 -1)"><path d="M82 561Q82 826 159.5 1057Q237 1288 383 1462L633 1462Q492 1269 420 1038Q348 807 348 563Q348 318 421.5 89.5Q495 -139 631 -324L383 -324Q236 -154 159 73Q82 300 82 561Z"/></g><g transform="translate(10562.333333333334 7509.333333333333) scale (1 -1)"><path d="M739 821L1319 821L1319 63Q1178 17 1053.5 -1.5Q929 -20 799 -20Q468 -20 293.5 174.5Q119 369 119 733Q119 1087 321.5 1285Q524 1483 883 1483Q1108 1483 1317 1393L1214 1145Q1054 1225 881 1225Q680 1225 559 1090Q438 955 438 727Q438 489 535.5 363.5Q633 238 819 238Q916 238 1016 258L1016 563L739 563Z"/></g><g transform="translate(12045.333333333334 7509.333333333333) scale (1 -1)"><path d="M147 1407Q147 1556 313 1556Q479 1556 479 1407Q479 1336 437.5 1296.5Q396 1257 313 1257Q147 1257 147 1407ZM465 0L160 0L160 1118L465 1118Z"/></g><g transform="translate(12670.333333333334 7509.333333333333) scale (1 -1)"><path d="M631 223Q711 223 823 258L823 31Q709 -20 543 -20Q360 -20 276.5 72.5Q193 165 193 350L193 889L47 889L47 1018L215 1120L303 1356L498 1356L498 1118L811 1118L811 889L498 889L498 350Q498 285 534.5 254Q571 223 631 223Z"/></g><g transform="translate(13559.333333333334 7509.333333333333) scale (1 -1)"><path d="M1382 0L1073 0L1073 631L494 631L494 0L184 0L184 1462L494 1462L494 889L1073 889L1073 1462L1382 1462Z"/></g><g transform="translate(15126.333333333334 7509.333333333333) scale (1 -1)"><path d="M952 0L911 143L895 143Q846 65 756 22.5Q666 -20 551 -20Q354 -20 254 85.5Q154 191 154 389L154 1118L459 1118L459 465Q459 344 502 283.5Q545 223 639 223Q767 223 824 308.5Q881 394 881 592L881 1118L1186 1118L1186 0Z"/></g><g transform="translate(16472.333333333336 7509.333333333333) scale (1 -1)"><path d="M782 1139Q980 1139 1092 984.5Q1204 830 1204 561Q1204 284 1088.5 132Q973 -20 774 -20Q577 -20 465 123L444 123L393 0L160 0L160 1556L465 1556L465 1194Q465 1125 453 973L465 973Q572 1139 782 1139ZM684 895Q571 895 519 825.5Q467 756 465 596L465 563Q465 383 518.5 305Q572 227 688 227Q782 227 837.5 313.5Q893 400 893 565Q893 730 837 812.5Q781 895 684 895Z"/></g><g transform="translate(17768.333333333336 7509.333333333333) scale (1 -1)"><path d="M612 561Q612 298 534.5 71Q457 -156 311 -324L63 -324Q198 -140 272 88.5Q346 317 346 563Q346 807 274 1038Q202 1269 61 1462L311 1462Q458 1287 535 1055.5Q612 824 612 561Z"/></g></g></g><g transform="translate(-2389.0848125 -449.9103176269531)"><rect x="0" y="0" width="66" height="28" rx="10" ry="10" style="fill:#FFFFFF;stroke:#707070;stroke-width:1px;"/><g transform="translate (5 5) scale(0.005859375)" style="fill:#000000;"><g transform="translate(13.16666666666697 2048) scale (1 -1)"><path d="M1047 406Q1047 208 904.5 94Q762 -20 508 -20Q274 -20 94 68L94 356Q242 290 344.5 263Q447 236 532 236Q634 236 688.5 275Q743 314 743 391Q743 434 719 467.5Q695 501 648.5 532Q602 563 459 631Q325 694 258 752Q191 810 151 887Q111 964 111 1067Q111 1261 242.5 1372Q374 1483 606 1483Q720 1483 823.5 1456Q927 1429 1040 1380L940 1139Q823 1187 746.5 1206Q670 1225 596 1225Q508 1225 461 1184Q414 1143 414 1077Q414 1036 433 1005.5Q452 975 493.5 946.5Q535 918 690 844Q895 746 971 647.5Q1047 549 1047 406Z"/></g><g transform="translate(1141.166666666667 2048) scale (1 -1)"><path d="M631 223Q711 223 823 258L823 31Q709 -20 543 -20Q360 -20 276.5 72.5Q193 165 193 350L193 889L47 889L47 1018L215 1120L303 1356L498 1356L498 1118L811 1118L811 889L498 889L498 350Q498 285 534.5 254Q571 223 631 223Z"/></g><g transform="translate(2030.166666666667 2048) scale (1 -1)"><path d="M403 561Q403 395 457.5 310Q512 225 635 225Q757 225 810.5 309.5Q864 394 864 561Q864 727 810 810Q756 893 633 893Q511 893 457 810.5Q403 728 403 561ZM1176 561Q1176 288 1032 134Q888 -20 631 -20Q470 -20 347 50.5Q224 121 158 253Q92 385 92 561Q92 835 235 987Q378 1139 637 1139Q798 1139 921 1069Q1044 999 1110 868Q1176 737 1176 561Z"/></g><g transform="translate(3298.166666666667 2048) scale (1 -1)"><path d="M774 -20Q577 -20 465 123L449 123Q465 -17 465 -39L465 -492L160 -492L160 1118L408 1118L451 973L465 973Q572 1139 782 1139Q980 1139 1092 986Q1204 833 1204 561Q1204 382 1151.5 250Q1099 118 1002 49Q905 -20 774 -20ZM684 895Q571 895 519 825.5Q467 756 465 596L465 563Q465 383 518.5 305Q572 227 688 227Q893 227 893 565Q893 730 842.5 812.5Q792 895 684 895Z"/></g><g transform="translate(5126.166666666667 2048) scale (1 -1)"><path d="M778 889L514 889L514 0L209 0L209 889L41 889L41 1036L209 1118L209 1200Q209 1391 303 1479Q397 1567 604 1567Q762 1567 885 1520L807 1296Q715 1325 637 1325Q572 1325 543 1286.5Q514 1248 514 1188L514 1118L778 1118ZM1258 0L953 0L953 1556L1258 1556Z"/></g><g transform="translate(6543.166666666667 2048) scale (1 -1)"><path d="M403 561Q403 395 457.5 310Q512 225 635 225Q757 225 810.5 309.5Q864 394 864 561Q864 727 810 810Q756 893 633 893Q511 893 457 810.5Q403 728 403 561ZM1176 561Q1176 288 1032 134Q888 -20 631 -20Q470 -20 347 50.5Q224 121 158 253Q92 385 92 561Q92 835 235 987Q378 1139 637 1139Q798 1139 921 1069Q1044 999 1110 868Q1176 737 1176 561Z"/></g><g transform="translate(7811.166666666667 2048) scale (1 -1)"><path d="M1079 0L993 391L879 885L870 885L666 0L338 0L20 1118L324 1118L453 623Q475 535 514 256L522 256Q526 332 557 497L573 582L711 1118L1047 1118L1178 582Q1190 527 1207.5 420.5Q1225 314 1227 256L1235 256Q1246 345 1266 458.5Q1286 572 1300 623L1434 1118L1733 1118L1411 0Z"/></g></g></g><g transform="translate(-2175.666664123535 -450.6111145019531)"><rect x="0" y="0" width="66" height="28" rx="10" ry="10" style="fill:#FFFFFF;stroke:#707070;stroke-width:1px;"/><g transform="translate (5 5) scale(0.005859375)" style="fill:#000000;"><g transform="translate(13.16666666666697 2048) scale (1 -1)"><path d="M1047 406Q1047 208 904.5 94Q762 -20 508 -20Q274 -20 94 68L94 356Q242 290 344.5 263Q447 236 532 236Q634 236 688.5 275Q743 314 743 391Q743 434 719 467.5Q695 501 648.5 532Q602 563 459 631Q325 694 258 752Q191 810 151 887Q111 964 111 1067Q111 1261 242.5 1372Q374 1483 606 1483Q720 1483 823.5 1456Q927 1429 1040 1380L940 1139Q823 1187 746.5 1206Q670 1225 596 1225Q508 1225 461 1184Q414 1143 414 1077Q414 1036 433 1005.5Q452 975 493.5 946.5Q535 918 690 844Q895 746 971 647.5Q1047 549 1047 406Z"/></g><g transform="translate(1141.166666666667 2048) scale (1 -1)"><path d="M631 223Q711 223 823 258L823 31Q709 -20 543 -20Q360 -20 276.5 72.5Q193 165 193 350L193 889L47 889L47 1018L215 1120L303 1356L498 1356L498 1118L811 1118L811 889L498 889L498 350Q498 285 534.5 254Q571 223 631 223Z"/></g><g transform="translate(2030.166666666667 2048) scale (1 -1)"><path d="M403 561Q403 395 457.5 310Q512 225 635 225Q757 225 810.5 309.5Q864 394 864 561Q864 727 810 810Q756 893 633 893Q511 893 457 810.5Q403 728 403 561ZM1176 561Q1176 288 1032 134Q888 -20 631 -20Q470 -20 347 50.5Q224 121 158 253Q92 385 92 561Q92 835 235 987Q378 1139 637 1139Q798 1139 921 1069Q1044 999 1110 868Q1176 737 1176 561Z"/></g><g transform="translate(3298.166666666667 2048) scale (1 -1)"><path d="M774 -20Q577 -20 465 123L449 123Q465 -17 465 -39L465 -492L160 -492L160 1118L408 1118L451 973L465 973Q572 1139 782 1139Q980 1139 1092 986Q1204 833 1204 561Q1204 382 1151.5 250Q1099 118 1002 49Q905 -20 774 -20ZM684 895Q571 895 519 825.5Q467 756 465 596L465 563Q465 383 518.5 305Q572 227 688 227Q893 227 893 565Q893 730 842.5 812.5Q792 895 684 895Z"/></g><g transform="translate(5126.166666666667 2048) scale (1 -1)"><path d="M778 889L514 889L514 0L209 0L209 889L41 889L41 1036L209 1118L209 1200Q209 1391 303 1479Q397 1567 604 1567Q762 1567 885 1520L807 1296Q715 1325 637 1325Q572 1325 543 1286.5Q514 1248 514 1188L514 1118L778 1118ZM1258 0L953 0L953 1556L1258 1556Z"/></g><g transform="translate(6543.166666666667 2048) scale (1 -1)"><path d="M403 561Q403 395 457.5 310Q512 225 635 225Q757 225 810.5 309.5Q864 394 864 561Q864 727 810 810Q756 893 633 893Q511 893 457 810.5Q403 728 403 561ZM1176 561Q1176 288 1032 134Q888 -20 631 -20Q470 -20 347 50.5Q224 121 158 253Q92 385 92 561Q92 835 235 987Q378 1139 637 1139Q798 1139 921 1069Q1044 999 1110 868Q1176 737 1176 561Z"/></g><g transform="translate(7811.166666666667 2048) scale (1 -1)"><path d="M1079 0L993 391L879 885L870 885L666 0L338 0L20 1118L324 1118L453 623Q475 535 514 256L522 256Q526 332 557 497L573 582L711 1118L1047 1118L1178 582Q1190 527 1207.5 420.5Q1225 314 1227 256L1235 256Q1246 345 1266 458.5Q1286 572 1300 623L1434 1118L1733 1118L1411 0Z"/></g></g></g><g transform="translate(-1925.7386255264287 -451.6111145019531)"><rect x="0" y="0" width="66" height="28" rx="10" ry="10" style="fill:#FFFFFF;stroke:#707070;stroke-width:1px;"/><g transform="translate (5 5) scale(0.005859375)" style="fill:#000000;"><g transform="translate(13.16666666666697 2048) scale (1 -1)"><path d="M1047 406Q1047 208 904.5 94Q762 -20 508 -20Q274 -20 94 68L94 356Q242 290 344.5 263Q447 236 532 236Q634 236 688.5 275Q743 314 743 391Q743 434 719 467.5Q695 501 648.5 532Q602 563 459 631Q325 694 258 752Q191 810 151 887Q111 964 111 1067Q111 1261 242.5 1372Q374 1483 606 1483Q720 1483 823.5 1456Q927 1429 1040 1380L940 1139Q823 1187 746.5 1206Q670 1225 596 1225Q508 1225 461 1184Q414 1143 414 1077Q414 1036 433 1005.5Q452 975 493.5 946.5Q535 918 690 844Q895 746 971 647.5Q1047 549 1047 406Z"/></g><g transform="translate(1141.166666666667 2048) scale (1 -1)"><path d="M631 223Q711 223 823 258L823 31Q709 -20 543 -20Q360 -20 276.5 72.5Q193 165 193 350L193 889L47 889L47 1018L215 1120L303 1356L498 1356L498 1118L811 1118L811 889L498 889L498 350Q498 285 534.5 254Q571 223 631 223Z"/></g><g transform="translate(2030.166666666667 2048) scale (1 -1)"><path d="M403 561Q403 395 457.5 310Q512 225 635 225Q757 225 810.5 309.5Q864 394 864 561Q864 727 810 810Q756 893 633 893Q511 893 457 810.5Q403 728 403 561ZM1176 561Q1176 288 1032 134Q888 -20 631 -20Q470 -20 347 50.5Q224 121 158 253Q92 385 92 561Q92 835 235 987Q378 1139 637 1139Q798 1139 921 1069Q1044 999 1110 868Q1176 737 1176 561Z"/></g><g transform="translate(3298.166666666667 2048) scale (1 -1)"><path d="M774 -20Q577 -20 465 123L449 123Q465 -17 465 -39L465 -492L160 -492L160 1118L408 1118L451 973L465 973Q572 1139 782 1139Q980 1139 1092 986Q1204 833 1204 561Q1204 382 1151.5 250Q1099 118 1002 49Q905 -20 774 -20ZM684 895Q571 895 519 825.5Q467 756 465 596L465 563Q465 383 518.5 305Q572 227 688 227Q893 227 893 565Q893 730 842.5 812.5Q792 895 684 895Z"/></g><g transform="translate(5126.166666666667 2048) scale (1 -1)"><path d="M778 889L514 889L514 0L209 0L209 889L41 889L41 1036L209 1118L209 1200Q209 1391 303 1479Q397 1567 604 1567Q762 1567 885 1520L807 1296Q715 1325 637 1325Q572 1325 543 1286.5Q514 1248 514 1188L514 1118L778 1118ZM1258 0L953 0L953 1556L1258 1556Z"/></g><g transform="translate(6543.166666666667 2048) scale (1 -1)"><path d="M403 561Q403 395 457.5 310Q512 225 635 225Q757 225 810.5 309.5Q864 394 864 561Q864 727 810 810Q756 893 633 893Q511 893 457 810.5Q403 728 403 561ZM1176 561Q1176 288 1032 134Q888 -20 631 -20Q470 -20 347 50.5Q224 121 158 253Q92 385 92 561Q92 835 235 987Q378 1139 637 1139Q798 1139 921 1069Q1044 999 1110 868Q1176 737 1176 561Z"/></g><g transform="translate(7811.166666666667 2048) scale (1 -1)"><path d="M1079 0L993 391L879 885L870 885L666 0L338 0L20 1118L324 1118L453 623Q475 535 514 256L522 256Q526 332 557 497L573 582L711 1118L1047 1118L1178 582Q1190 527 1207.5 420.5Q1225 314 1227 256L1235 256Q1246 345 1266 458.5Q1286 572 1300 623L1434 1118L1733 1118L1411 0Z"/></g></g></g></g></svg>